<?xml version="1.0" standalone="no"?><!DOCTYPE svg PUBLIC "-//W3C//DTD SVG 1.1//EN" "http://www.w3.org/Graphics/SVG/1.1/DTD/svg11.dtd"><svg width="100%" height="100%" viewBox="0 0 17 17" version="1.1" xmlns="http://www.w3.org/2000/svg" xmlns:xlink="http://www.w3.org/1999/xlink" xml:space="preserve" style="fill-rule:evenodd;clip-rule:evenodd;stroke-linejoin:round;stroke-miterlimit:1.41421;"><g><path d="M13.258,12.198c0.293,-0.293 0.293,-0.768 0,-1.061l-7.424,-7.425c-0.293,-0.292 -0.768,-0.292 -1.061,0l-1.061,1.061c-0.292,0.293 -0.292,0.768 0,1.061l7.425,7.424c0.293,0.293 0.768,0.293 1.061,0l1.06,-1.06Z" style="fill:#7435fe;"/><path d="M4.773,13.258c0.293,0.293 0.768,0.293 1.061,0l7.424,-7.424c0.293,-0.293 0.293,-0.768 0,-1.061l-1.06,-1.061c-0.293,-0.292 -0.768,-0.292 -1.061,0l-7.425,7.425c-0.292,0.293 -0.292,0.768 0,1.061l1.061,1.06Z" style="fill:#7435fe;"/></g></svg>