<?xml version="1.0" standalone="no"?><!DOCTYPE svg PUBLIC "-//W3C//DTD SVG 1.1//EN" "http://www.w3.org/Graphics/SVG/1.1/DTD/svg11.dtd"><svg width="100%" height="100%" viewBox="0 0 12 12" version="1.1" xmlns="http://www.w3.org/2000/svg" xmlns:xlink="http://www.w3.org/1999/xlink" xml:space="preserve" style="fill-rule:evenodd;clip-rule:evenodd;stroke-linejoin:round;stroke-miterlimit:1.41421;"><g><path d="M12,5.25c0,-0.414 -0.336,-0.75 -0.75,-0.75l-10.5,0c-0.414,0 -0.75,0.336 -0.75,0.75l0,1.5c0,0.414 0.336,0.75 0.75,0.75l10.5,0c0.414,0 0.75,-0.336 0.75,-0.75l0,-1.5Z" style="fill:#ff3064;"/><path d="M6.75,12c0.414,0 0.75,-0.336 0.75,-0.75l0,-10.5c0,-0.414 -0.336,-0.75 -0.75,-0.75l-1.5,0c-0.414,0 -0.75,0.336 -0.75,0.75l0,10.5c0,0.414 0.336,0.75 0.75,0.75l1.5,0Z" style="fill:#ff3064;"/></g></svg>