<?xml version="1.0" standalone="no"?><!DOCTYPE svg PUBLIC "-//W3C//DTD SVG 1.1//EN" "http://www.w3.org/Graphics/SVG/1.1/DTD/svg11.dtd"><svg width="100%" height="100%" viewBox="0 0 315 180" version="1.1" xmlns="http://www.w3.org/2000/svg" xmlns:xlink="http://www.w3.org/1999/xlink" xml:space="preserve" style="fill-rule:evenodd;clip-rule:evenodd;stroke-linejoin:round;stroke-miterlimit:1.41421;"><g><path d="M315,9.022c0,-4.979 -4.043,-9.022 -9.022,-9.022l-296.956,0c-4.979,0 -9.022,4.043 -9.022,9.022l0,161.956c0,4.979 4.043,9.022 9.022,9.022l296.956,0c4.979,0 9.022,-4.043 9.022,-9.022l0,-161.956Z" style="fill:#b8f5d2;"/><g><rect x="40.5" y="39" width="39" height="3" style="fill:#8dc8a7;"/><rect x="40.5" y="88.5" width="39" height="3" style="fill:#8dc8a7;"/><rect x="40.5" y="138" width="39" height="3" style="fill:#8dc8a7;"/><rect x="79.5" y="150.75" width="39" height="3" style="fill:#8dc8a7;"/><rect x="79.5" y="150.75" width="39" height="3" style="fill:#8dc8a7;"/><rect x="159" y="150.75" width="39" height="3" style="fill:#8dc8a7;"/><rect x="197.25" y="150.75" width="39" height="3" style="fill:#8dc8a7;"/><rect x="118.5" y="150.75" width="39" height="3" style="fill:#8dc8a7;"/><rect x="79.5" y="108.75" width="39" height="3" style="fill:#8dc8a7;"/><rect x="159" y="108.75" width="39" height="3" style="fill:#8dc8a7;"/><rect x="197.25" y="108.75" width="39" height="3" style="fill:#8dc8a7;"/><rect x="236.25" y="88.5" width="39" height="3" style="fill:#8dc8a7;"/><rect x="118.5" y="108.75" width="39" height="3" style="fill:#8dc8a7;"/><rect x="79.5" y="68.25" width="39" height="3" style="fill:#8dc8a7;"/><rect x="159" y="68.25" width="39" height="3" style="fill:#8dc8a7;"/><rect x="197.25" y="68.25" width="39" height="3" style="fill:#8dc8a7;"/><rect x="118.5" y="68.25" width="39" height="3" style="fill:#8dc8a7;"/><rect x="79.5" y="26.25" width="39" height="3" style="fill:#8dc8a7;"/><rect x="159" y="26.25" width="39" height="3" style="fill:#8dc8a7;"/><rect x="197.25" y="26.25" width="39" height="3" style="fill:#8dc8a7;"/><rect x="118.5" y="26.25" width="39" height="3" style="fill:#8dc8a7;"/><path d="M80.625,153.75l0,-127.5l-3.75,0l0,127.5l3.75,0Z" style="fill:#8dc8a7;"/><path d="M159.375,153.75l0,-127.5l-3.75,0l0,127.5l3.75,0Z" style="fill:#8dc8a7;"/><path d="M238.125,153.75l0,-127.5l-3.75,0l0,127.5l3.75,0Z" style="fill:#8dc8a7;"/></g><g><g><g><rect x="54" y="48" width="3.75" height="3" style="fill:#c0a000;"/><rect x="54" y="47.25" width="3.75" height="3" style="fill:#e6c300;"/><rect x="54" y="47.25" width="3.75" height="3" style="fill:#e6c300;"/></g><g><rect x="23.25" y="48" width="3.75" height="3" style="fill:#c0a000;"/><rect x="23.25" y="47.25" width="3.75" height="3" style="fill:#e6c300;"/><rect x="23.25" y="47.25" width="3.75" height="3" style="fill:#e6c300;"/></g><g><rect x="54" y="39" width="3.75" height="3" style="fill:#c0a000;"/><rect x="54" y="38.25" width="3.75" height="3" style="fill:#e6c300;"/><rect x="54" y="38.25" width="3.75" height="3" style="fill:#e6c300;"/></g><g><rect x="23.25" y="39" width="3.75" height="3" style="fill:#c0a000;"/><rect x="23.25" y="38.25" width="3.75" height="3" style="fill:#e6c300;"/><rect x="23.25" y="38.25" width="3.75" height="3" style="fill:#e6c300;"/></g><g><rect x="54" y="30" width="3.75" height="3" style="fill:#c0a000;"/><rect x="54" y="29.25" width="3.75" height="3" style="fill:#e6c300;"/><rect x="54" y="29.25" width="3.75" height="3" style="fill:#e6c300;"/></g><g><rect x="23.25" y="30" width="3.75" height="3" style="fill:#c0a000;"/><rect x="23.25" y="29.25" width="3.75" height="3" style="fill:#e6c300;"/><rect x="23.25" y="29.25" width="3.75" height="3" style="fill:#e6c300;"/></g><g><rect x="27" y="27.75" width="27" height="27" style="fill:#3f444d;"/><rect x="27" y="26.25" width="27" height="27" style="fill:#525760;"/></g></g><g><g><rect x="133.5" y="35.25" width="3.75" height="3" style="fill:#c0a000;"/><rect x="133.5" y="34.5" width="3.75" height="3" style="fill:#e6c300;"/><rect x="133.5" y="34.5" width="3.75" height="3" style="fill:#e6c300;"/></g><g><rect x="102.75" y="35.25" width="3.75" height="3" style="fill:#c0a000;"/><rect x="102.75" y="34.5" width="3.75" height="3" style="fill:#e6c300;"/><rect x="102.75" y="34.5" width="3.75" height="3" style="fill:#e6c300;"/></g><g><rect x="133.5" y="26.25" width="3.75" height="3" style="fill:#c0a000;"/><rect x="133.5" y="25.5" width="3.75" height="3" style="fill:#e6c300;"/><rect x="133.5" y="25.5" width="3.75" height="3" style="fill:#e6c300;"/></g><g><rect x="102.75" y="26.25" width="3.75" height="3" style="fill:#c0a000;"/><rect x="102.75" y="25.5" width="3.75" height="3" style="fill:#e6c300;"/><rect x="102.75" y="25.5" width="3.75" height="3" style="fill:#e6c300;"/></g><g><rect x="133.5" y="17.25" width="3.75" height="3" style="fill:#c0a000;"/><rect x="133.5" y="16.5" width="3.75" height="3" style="fill:#e6c300;"/><rect x="133.5" y="16.5" width="3.75" height="3" style="fill:#e6c300;"/></g><g><rect x="102.75" y="17.25" width="3.75" height="3" style="fill:#c0a000;"/><rect x="102.75" y="16.5" width="3.75" height="3" style="fill:#e6c300;"/><rect x="102.75" y="16.5" width="3.75" height="3" style="fill:#e6c300;"/></g><g><rect x="106.5" y="15" width="27" height="27" style="fill:#3f444d;"/><rect x="106.5" y="13.5" width="27" height="27" style="fill:#525760;"/></g></g><g><g><rect x="211.5" y="35.25" width="3.75" height="3" style="fill:#c0a000;"/><rect x="211.5" y="34.5" width="3.75" height="3" style="fill:#e6c300;"/><rect x="211.5" y="34.5" width="3.75" height="3" style="fill:#e6c300;"/></g><g><rect x="180.75" y="35.25" width="3.75" height="3" style="fill:#c0a000;"/><rect x="180.75" y="34.5" width="3.75" height="3" style="fill:#e6c300;"/><rect x="180.75" y="34.5" width="3.75" height="3" style="fill:#e6c300;"/></g><g><rect x="211.5" y="26.25" width="3.75" height="3" style="fill:#c0a000;"/><rect x="211.5" y="25.5" width="3.75" height="3" style="fill:#e6c300;"/><rect x="211.5" y="25.5" width="3.75" height="3" style="fill:#e6c300;"/></g><g><rect x="180.75" y="26.25" width="3.75" height="3" style="fill:#c0a000;"/><rect x="180.75" y="25.5" width="3.75" height="3" style="fill:#e6c300;"/><rect x="180.75" y="25.5" width="3.75" height="3" style="fill:#e6c300;"/></g><g><rect x="211.5" y="17.25" width="3.75" height="3" style="fill:#c0a000;"/><rect x="211.5" y="16.5" width="3.75" height="3" style="fill:#e6c300;"/><rect x="211.5" y="16.5" width="3.75" height="3" style="fill:#e6c300;"/></g><g><rect x="180.75" y="17.25" width="3.75" height="3" style="fill:#c0a000;"/><rect x="180.75" y="16.5" width="3.75" height="3" style="fill:#e6c300;"/><rect x="180.75" y="16.5" width="3.75" height="3" style="fill:#e6c300;"/></g><g><rect x="184.5" y="15" width="27" height="27" style="fill:#3f444d;"/><rect x="184.5" y="13.5" width="27" height="27" style="fill:#525760;"/></g></g><g><g><rect x="133.5" y="77.25" width="3.75" height="3" style="fill:#c0a000;"/><rect x="133.5" y="76.5" width="3.75" height="3" style="fill:#e6c300;"/><rect x="133.5" y="76.5" width="3.75" height="3" style="fill:#e6c300;"/></g><g><rect x="102.75" y="77.25" width="3.75" height="3" style="fill:#c0a000;"/><rect x="102.75" y="76.5" width="3.75" height="3" style="fill:#e6c300;"/><rect x="102.75" y="76.5" width="3.75" height="3" style="fill:#e6c300;"/></g><g><rect x="133.5" y="68.25" width="3.75" height="3" style="fill:#c0a000;"/><rect x="133.5" y="67.5" width="3.75" height="3" style="fill:#e6c300;"/><rect x="133.5" y="67.5" width="3.75" height="3" style="fill:#e6c300;"/></g><g><rect x="102.75" y="68.25" width="3.75" height="3" style="fill:#c0a000;"/><rect x="102.75" y="67.5" width="3.75" height="3" style="fill:#e6c300;"/><rect x="102.75" y="67.5" width="3.75" height="3" style="fill:#e6c300;"/></g><g><rect x="133.5" y="59.25" width="3.75" height="3" style="fill:#c0a000;"/><rect x="133.5" y="58.5" width="3.75" height="3" style="fill:#e6c300;"/><rect x="133.5" y="58.5" width="3.75" height="3" style="fill:#e6c300;"/></g><g><rect x="102.75" y="59.25" width="3.75" height="3" style="fill:#c0a000;"/><rect x="102.75" y="58.5" width="3.75" height="3" style="fill:#e6c300;"/><rect x="102.75" y="58.5" width="3.75" height="3" style="fill:#e6c300;"/></g><g><rect x="106.5" y="57" width="27" height="27" style="fill:#3f444d;"/><rect x="106.5" y="55.5" width="27" height="27" style="fill:#525760;"/></g></g><g><g><rect x="211.5" y="77.25" width="3.75" height="3" style="fill:#c0a000;"/><rect x="211.5" y="76.5" width="3.75" height="3" style="fill:#e6c300;"/><rect x="211.5" y="76.5" width="3.75" height="3" style="fill:#e6c300;"/></g><g><rect x="180.75" y="77.25" width="3.75" height="3" style="fill:#c0a000;"/><rect x="180.75" y="76.5" width="3.75" height="3" style="fill:#e6c300;"/><rect x="180.75" y="76.5" width="3.75" height="3" style="fill:#e6c300;"/></g><g><rect x="211.5" y="68.25" width="3.75" height="3" style="fill:#c0a000;"/><rect x="211.5" y="67.5" width="3.75" height="3" style="fill:#e6c300;"/><rect x="211.5" y="67.5" width="3.75" height="3" style="fill:#e6c300;"/></g><g><rect x="180.75" y="68.25" width="3.75" height="3" style="fill:#c0a000;"/><rect x="180.75" y="67.5" width="3.75" height="3" style="fill:#e6c300;"/><rect x="180.75" y="67.5" width="3.75" height="3" style="fill:#e6c300;"/></g><g><rect x="211.5" y="59.25" width="3.75" height="3" style="fill:#c0a000;"/><rect x="211.5" y="58.5" width="3.75" height="3" style="fill:#e6c300;"/><rect x="211.5" y="58.5" width="3.75" height="3" style="fill:#e6c300;"/></g><g><rect x="180.75" y="59.25" width="3.75" height="3" style="fill:#c0a000;"/><rect x="180.75" y="58.5" width="3.75" height="3" style="fill:#e6c300;"/><rect x="180.75" y="58.5" width="3.75" height="3" style="fill:#e6c300;"/></g><g><rect x="184.5" y="57" width="27" height="27" style="fill:#3f444d;"/><rect x="184.5" y="55.5" width="27" height="27" style="fill:#525760;"/></g></g><g><g><rect x="133.5" y="117.75" width="3.75" height="3" style="fill:#c0a000;"/><rect x="133.5" y="117" width="3.75" height="3" style="fill:#e6c300;"/><rect x="133.5" y="117" width="3.75" height="3" style="fill:#e6c300;"/></g><g><rect x="102.75" y="117.75" width="3.75" height="3" style="fill:#c0a000;"/><rect x="102.75" y="117" width="3.75" height="3" style="fill:#e6c300;"/><rect x="102.75" y="117" width="3.75" height="3" style="fill:#e6c300;"/></g><g><rect x="133.5" y="108.75" width="3.75" height="3" style="fill:#c0a000;"/><rect x="133.5" y="108" width="3.75" height="3" style="fill:#e6c300;"/><rect x="133.5" y="108" width="3.75" height="3" style="fill:#e6c300;"/></g><g><rect x="102.75" y="108.75" width="3.75" height="3" style="fill:#c0a000;"/><rect x="102.75" y="108" width="3.75" height="3" style="fill:#e6c300;"/><rect x="102.75" y="108" width="3.75" height="3" style="fill:#e6c300;"/></g><g><rect x="133.5" y="99.75" width="3.75" height="3" style="fill:#c0a000;"/><rect x="133.5" y="99" width="3.75" height="3" style="fill:#e6c300;"/><rect x="133.5" y="99" width="3.75" height="3" style="fill:#e6c300;"/></g><g><rect x="102.75" y="99.75" width="3.75" height="3" style="fill:#c0a000;"/><rect x="102.75" y="99" width="3.75" height="3" style="fill:#e6c300;"/><rect x="102.75" y="99" width="3.75" height="3" style="fill:#e6c300;"/></g><g><rect x="106.5" y="97.5" width="27" height="27" style="fill:#3f444d;"/><rect x="106.5" y="96" width="27" height="27" style="fill:#525760;"/></g></g><g><g><rect x="211.5" y="117.75" width="3.75" height="3" style="fill:#c0a000;"/><rect x="211.5" y="117" width="3.75" height="3" style="fill:#e6c300;"/><rect x="211.5" y="117" width="3.75" height="3" style="fill:#e6c300;"/></g><g><rect x="180.75" y="117.75" width="3.75" height="3" style="fill:#c0a000;"/><rect x="180.75" y="117" width="3.75" height="3" style="fill:#e6c300;"/><rect x="180.75" y="117" width="3.75" height="3" style="fill:#e6c300;"/></g><g><rect x="211.5" y="108.75" width="3.75" height="3" style="fill:#c0a000;"/><rect x="211.5" y="108" width="3.75" height="3" style="fill:#e6c300;"/><rect x="211.5" y="108" width="3.75" height="3" style="fill:#e6c300;"/></g><g><rect x="180.75" y="108.75" width="3.75" height="3" style="fill:#c0a000;"/><rect x="180.75" y="108" width="3.75" height="3" style="fill:#e6c300;"/><rect x="180.75" y="108" width="3.75" height="3" style="fill:#e6c300;"/></g><g><rect x="211.5" y="99.75" width="3.75" height="3" style="fill:#c0a000;"/><rect x="211.5" y="99" width="3.75" height="3" style="fill:#e6c300;"/><rect x="211.5" y="99" width="3.75" height="3" style="fill:#e6c300;"/></g><g><rect x="180.75" y="99.75" width="3.75" height="3" style="fill:#c0a000;"/><rect x="180.75" y="99" width="3.75" height="3" style="fill:#e6c300;"/><rect x="180.75" y="99" width="3.75" height="3" style="fill:#e6c300;"/></g><g><rect x="184.5" y="97.5" width="27" height="27" style="fill:#3f444d;"/><rect x="184.5" y="96" width="27" height="27" style="fill:#525760;"/></g></g><g><g><rect x="133.5" y="159.75" width="3.75" height="3" style="fill:#c0a000;"/><rect x="133.5" y="159" width="3.75" height="3" style="fill:#e6c300;"/><rect x="133.5" y="159" width="3.75" height="3" style="fill:#e6c300;"/></g><g><rect x="102.75" y="159.75" width="3.75" height="3" style="fill:#c0a000;"/><rect x="102.75" y="159" width="3.75" height="3" style="fill:#e6c300;"/><rect x="102.75" y="159" width="3.75" height="3" style="fill:#e6c300;"/></g><g><rect x="133.5" y="150.75" width="3.75" height="3" style="fill:#c0a000;"/><rect x="133.5" y="150" width="3.75" height="3" style="fill:#e6c300;"/><rect x="133.5" y="150" width="3.75" height="3" style="fill:#e6c300;"/></g><g><rect x="102.75" y="150.75" width="3.75" height="3" style="fill:#c0a000;"/><rect x="102.75" y="150" width="3.75" height="3" style="fill:#e6c300;"/><rect x="102.75" y="150" width="3.75" height="3" style="fill:#e6c300;"/></g><g><rect x="133.5" y="141.75" width="3.75" height="3" style="fill:#c0a000;"/><rect x="133.5" y="141" width="3.75" height="3" style="fill:#e6c300;"/><rect x="133.5" y="141" width="3.75" height="3" style="fill:#e6c300;"/></g><g><rect x="102.75" y="141.75" width="3.75" height="3" style="fill:#c0a000;"/><rect x="102.75" y="141" width="3.75" height="3" style="fill:#e6c300;"/><rect x="102.75" y="141" width="3.75" height="3" style="fill:#e6c300;"/></g><g><rect x="106.5" y="139.5" width="27" height="27" style="fill:#3f444d;"/><rect x="106.5" y="138" width="27" height="27" style="fill:#525760;"/></g></g><g><g><rect x="211.5" y="159.75" width="3.75" height="3" style="fill:#c0a000;"/><rect x="211.5" y="159" width="3.75" height="3" style="fill:#e6c300;"/><rect x="211.5" y="159" width="3.75" height="3" style="fill:#e6c300;"/></g><g><rect x="180.75" y="159.75" width="3.75" height="3" style="fill:#c0a000;"/><rect x="180.75" y="159" width="3.75" height="3" style="fill:#e6c300;"/><rect x="180.75" y="159" width="3.75" height="3" style="fill:#e6c300;"/></g><g><rect x="211.5" y="150.75" width="3.75" height="3" style="fill:#c0a000;"/><rect x="211.5" y="150" width="3.75" height="3" style="fill:#e6c300;"/><rect x="211.5" y="150" width="3.75" height="3" style="fill:#e6c300;"/></g><g><rect x="180.75" y="150.75" width="3.75" height="3" style="fill:#c0a000;"/><rect x="180.75" y="150" width="3.75" height="3" style="fill:#e6c300;"/><rect x="180.75" y="150" width="3.75" height="3" style="fill:#e6c300;"/></g><g><rect x="211.5" y="141.75" width="3.75" height="3" style="fill:#c0a000;"/><rect x="211.5" y="141" width="3.75" height="3" style="fill:#e6c300;"/><rect x="211.5" y="141" width="3.75" height="3" style="fill:#e6c300;"/></g><g><rect x="180.75" y="141.75" width="3.75" height="3" style="fill:#c0a000;"/><rect x="180.75" y="141" width="3.75" height="3" style="fill:#e6c300;"/><rect x="180.75" y="141" width="3.75" height="3" style="fill:#e6c300;"/></g><g><rect x="184.5" y="139.5" width="27" height="27" style="fill:#3f444d;"/><rect x="184.5" y="138" width="27" height="27" style="fill:#525760;"/></g></g><g><g><rect x="54" y="97.5" width="3.75" height="3" style="fill:#c0a000;"/><rect x="54" y="96.75" width="3.75" height="3" style="fill:#e6c300;"/><rect x="54" y="96.75" width="3.75" height="3" style="fill:#e6c300;"/></g><g><rect x="23.25" y="97.5" width="3.75" height="3" style="fill:#c0a000;"/><rect x="23.25" y="96.75" width="3.75" height="3" style="fill:#e6c300;"/><rect x="23.25" y="96.75" width="3.75" height="3" style="fill:#e6c300;"/></g><g><rect x="54" y="88.5" width="3.75" height="3" style="fill:#c0a000;"/><rect x="54" y="87.75" width="3.75" height="3" style="fill:#e6c300;"/><rect x="54" y="87.75" width="3.75" height="3" style="fill:#e6c300;"/></g><g><rect x="23.25" y="88.5" width="3.75" height="3" style="fill:#c0a000;"/><rect x="23.25" y="87.75" width="3.75" height="3" style="fill:#e6c300;"/><rect x="23.25" y="87.75" width="3.75" height="3" style="fill:#e6c300;"/></g><g><rect x="54" y="79.5" width="3.75" height="3" style="fill:#c0a000;"/><rect x="54" y="78.75" width="3.75" height="3" style="fill:#e6c300;"/><rect x="54" y="78.75" width="3.75" height="3" style="fill:#e6c300;"/></g><g><rect x="23.25" y="79.5" width="3.75" height="3" style="fill:#c0a000;"/><rect x="23.25" y="78.75" width="3.75" height="3" style="fill:#e6c300;"/><rect x="23.25" y="78.75" width="3.75" height="3" style="fill:#e6c300;"/></g><g><rect x="27" y="77.25" width="27" height="27" style="fill:#3f444d;"/><rect x="27" y="75.75" width="27" height="27" style="fill:#525760;"/></g></g><g><g><rect x="288" y="97.5" width="3.75" height="3" style="fill:#c0a000;"/><rect x="288" y="96.75" width="3.75" height="3" style="fill:#e6c300;"/><rect x="288" y="96.75" width="3.75" height="3" style="fill:#e6c300;"/></g><g><rect x="257.25" y="97.5" width="3.75" height="3" style="fill:#c0a000;"/><rect x="257.25" y="96.75" width="3.75" height="3" style="fill:#e6c300;"/><rect x="257.25" y="96.75" width="3.75" height="3" style="fill:#e6c300;"/></g><g><rect x="288" y="88.5" width="3.75" height="3" style="fill:#c0a000;"/><rect x="288" y="87.75" width="3.75" height="3" style="fill:#e6c300;"/><rect x="288" y="87.75" width="3.75" height="3" style="fill:#e6c300;"/></g><g><rect x="257.25" y="88.5" width="3.75" height="3" style="fill:#c0a000;"/><rect x="257.25" y="87.75" width="3.75" height="3" style="fill:#e6c300;"/><rect x="257.25" y="87.75" width="3.75" height="3" style="fill:#e6c300;"/></g><g><rect x="288" y="79.5" width="3.75" height="3" style="fill:#c0a000;"/><rect x="288" y="78.75" width="3.75" height="3" style="fill:#e6c300;"/><rect x="288" y="78.75" width="3.75" height="3" style="fill:#e6c300;"/></g><g><rect x="257.25" y="79.5" width="3.75" height="3" style="fill:#c0a000;"/><rect x="257.25" y="78.75" width="3.75" height="3" style="fill:#e6c300;"/><rect x="257.25" y="78.75" width="3.75" height="3" style="fill:#e6c300;"/></g><g><rect x="261" y="77.25" width="27" height="27" style="fill:#3f444d;"/><rect x="261" y="75.75" width="27" height="27" style="fill:#525760;"/></g></g><g><g><rect x="54" y="147" width="3.75" height="3" style="fill:#c0a000;"/><rect x="54" y="146.25" width="3.75" height="3" style="fill:#e6c300;"/><rect x="54" y="146.25" width="3.75" height="3" style="fill:#e6c300;"/></g><g><rect x="23.25" y="147" width="3.75" height="3" style="fill:#c0a000;"/><rect x="23.25" y="146.25" width="3.75" height="3" style="fill:#e6c300;"/><rect x="23.25" y="146.25" width="3.75" height="3" style="fill:#e6c300;"/></g><g><rect x="54" y="138" width="3.75" height="3" style="fill:#c0a000;"/><rect x="54" y="137.25" width="3.75" height="3" style="fill:#e6c300;"/><rect x="54" y="137.25" width="3.75" height="3" style="fill:#e6c300;"/></g><g><rect x="23.25" y="138" width="3.75" height="3" style="fill:#c0a000;"/><rect x="23.25" y="137.25" width="3.75" height="3" style="fill:#e6c300;"/><rect x="23.25" y="137.25" width="3.75" height="3" style="fill:#e6c300;"/></g><g><rect x="54" y="129" width="3.75" height="3" style="fill:#c0a000;"/><rect x="54" y="128.25" width="3.75" height="3" style="fill:#e6c300;"/><rect x="54" y="128.25" width="3.75" height="3" style="fill:#e6c300;"/></g><g><rect x="23.25" y="129" width="3.75" height="3" style="fill:#c0a000;"/><rect x="23.25" y="128.25" width="3.75" height="3" style="fill:#e6c300;"/><rect x="23.25" y="128.25" width="3.75" height="3" style="fill:#e6c300;"/></g><g><rect x="27" y="126.75" width="27" height="27" style="fill:#3f444d;"/><rect x="27" y="125.25" width="27" height="27" style="fill:#525760;"/></g></g></g></g></svg>