<?xml version="1.0" standalone="no"?><!DOCTYPE svg PUBLIC "-//W3C//DTD SVG 1.1//EN" "http://www.w3.org/Graphics/SVG/1.1/DTD/svg11.dtd"><svg width="100%" height="100%" viewBox="0 0 1200 825" version="1.1" xmlns="http://www.w3.org/2000/svg" xmlns:xlink="http://www.w3.org/1999/xlink" xml:space="preserve" style="fill-rule:evenodd;clip-rule:evenodd;stroke-linejoin:round;stroke-miterlimit:1.41421;"><rect id="bg" x="0" y="0" width="1200" height="825" style="fill:#33495d;"/><g id="space stuff"><path id="central" d="M600,196.5c119.293,0 216,96.707 216,216c0,119.294 -96.707,216 -216,216c-119.293,0 -216,-96.706 -216,-216c0,-119.293 96.707,-216 216,-216Z" style="fill:#dfe5e7;fill-opacity:0.0313726;"/><path id="middle" d="M600.375,78c184.946,0 334.875,149.929 334.875,334.875c0,184.946 -149.929,334.875 -334.875,334.875c-184.946,0 -334.875,-149.929 -334.875,-334.875c0,-184.946 149.929,-334.875 334.875,-334.875Z" style="fill:#dfe5e7;fill-opacity:0.0196078;"/><path id="large" d="M600.75,7.5c223.675,0 405,181.325 405,405c0,223.675 -181.325,405 -405,405c-223.675,0 -405,-181.325 -405,-405c0,-223.675 181.325,-405 405,-405Z" style="fill:#dfe5e7;fill-opacity:0.0196078;"/></g></svg>