<?xml version="1.0" standalone="no"?><!DOCTYPE svg PUBLIC "-//W3C//DTD SVG 1.1//EN" "http://www.w3.org/Graphics/SVG/1.1/DTD/svg11.dtd"><svg width="100%" height="100%" viewBox="0 0 321 321" version="1.1" xmlns="http://www.w3.org/2000/svg" xmlns:xlink="http://www.w3.org/1999/xlink" xml:space="preserve" style="fill-rule:evenodd;clip-rule:evenodd;stroke-linejoin:round;stroke-miterlimit:1.41421;"><g id="_84203480_"><path id="_49116176_" d="M4.468,160.139c0,-85.829 69.842,-155.669 155.692,-155.669c85.829,0 155.663,69.84 155.663,155.669c0,85.85 -69.834,155.671 -155.663,155.671c-85.85,0 -155.692,-69.821 -155.692,-155.671ZM0,160.139c0,88.31 71.85,160.139 160.16,160.139c88.307,0 160.157,-71.829 160.157,-160.139c0,-88.308 -71.85,-160.139 -160.157,-160.139c-88.31,0 -160.16,71.831 -160.16,160.139Z" style="fill:#a3b5c3;"/><path id="_48873840_" d="M265.376,186.186c-4.374,4.058 -10.547,4.118 -15.546,7.416c-2.284,2.284 -1.713,4.904 -0.778,7.793c1.853,3.648 1.148,3.279 -1.425,4.139c-6.033,2.008 -5.973,8.612 -13.24,7.517c-0.41,0.115 -2.105,-0.741 -1.09,0.489c0.78,0.916 1.09,0.37 2.633,0.546c2.581,0.134 3.556,-0.941 5.369,-2.171c2.579,-2.183 2.265,-3.003 5.469,-4.528c0.759,-0.195 2.633,-0.738 3.688,-0.368c0.704,0.644 0.725,0.663 0.84,1.248c-0.41,1.774 -2.985,3.24 -3.984,3.845c1.37,0.999 3.909,2.678 3.478,4.082c-0.59,0.935 -0.55,1.096 -1.564,1.58c-1.443,0.704 -4.313,0.585 -7.028,-1.425c-0.41,0.136 -0.859,-0.778 -2.008,0.316c2.634,2.714 6.323,2.104 6.873,2.654c0.564,0.544 -1.975,3.823 -2.071,4.528c-1.779,4.708 0.391,9.041 -0.55,13.94c-0.583,3.808 -1.739,5.623 -5.072,8.047c-6.152,4.254 -10.467,5.484 -17.34,6.599c-18.079,1.228 -29.483,-4.98 -42.484,-14.705c-13.025,-9.723 -18.005,-14.875 -22.063,-20.344c-0.06,-2.244 1.58,-3.944 0.176,-6.362c-1.175,0.41 -1.056,1.949 -1.76,2.828c-1.015,1.424 -3.414,2.459 -5.133,2.285c-5.348,-1.815 -5.643,-8.102 -9.002,-11.697c-7.163,-7.067 -9.177,-17.259 -5.348,-25.79c1.345,-2.635 3.769,-5.174 6.482,-6.113c3.34,-0.525 7.282,-0.525 9.468,2.715c2.579,2.463 4.179,6.463 4.823,9.995c1.054,1.7 -0.234,3.654 1.524,5.059c3.065,0.295 5.698,1.054 8.647,-0.82c2.189,0.295 2.48,2.715 4.139,3.769l2.928,1.759c3.124,1.284 7.148,1.284 9.782,-1c4.943,-5.053 3.868,-10.265 5.569,-15.853c4.722,-4.175 7.847,-10.152 7.786,-15.991c-0.289,-3.587 -1.579,-7.302 -3.708,-10.876c0.35,-2.123 1.544,-3.708 2.224,-5.603c0.604,-0.349 1.369,-0.349 2.013,-0.465c5.25,-1.114 10.018,-5.877 12.066,-10.896l0.471,-0.47c6.013,-0.408 13.49,-2.539 16.945,-8.821c0.723,-2.714 3.768,-0.704 5.661,-1.35c3.185,-0.174 6.363,-1.953 8.768,-4.003c0.699,-0.234 1.23,0.529 1.658,0.88c1.406,4.702 3.984,9.236 5.469,14.019c1.814,3.574 2.479,6.988 1.814,10.641c0.761,5.585 3.965,10.836 6.189,16.479c2.228,5.954 5.703,11.947 8.242,18.079c0.464,2.459 1.518,4.415 0,6.404ZM266.605,175.915c-4.239,-9.782 -9.001,-18.175 -12.475,-28.016c-2.479,-3.534 -1.054,-7.282 -1.37,-11.072c-1.579,-5.877 -4.06,-10.407 -6.402,-16.129c-0.665,-1.64 1.169,-2.104 1.813,-3.279c1.055,-2.889 0.316,-6.127 -0.993,-8.902c-0.525,-1.585 1.364,-2.693 0.993,-4.333c-0.054,-2.539 -2.283,-4.258 -4.057,-5.603c-2.66,-3.829 -3.89,-5.838 -7.188,-9.297l0,-0.665c1.658,-1.464 3.009,-3.999 2.969,-6.167c-0.665,-2.46 -1.19,-4.763 -3.555,-6.484c-3.769,-2.108 -7.592,1.19 -10.581,2.89c-0.838,0.584 -1.248,1.175 -2.423,1.075c-0.76,-0.275 -1.54,-0.564 -2.36,-0.859c-0.765,0.878 -1.719,1.819 -2.87,2.733l3.65,1.485c0.119,0.101 0.174,0.174 0.174,0.314c0,0.055 -0.04,0.175 -0.04,0.27c-0.249,0.215 -8.47,7.422 -8.47,7.422c-0.021,0.015 -14.802,14.601 -14.802,14.601c0,0.019 -4.218,4.319 -4.218,4.319c-0.034,0.018 -13.155,15.148 -13.155,15.148c-6.873,7.968 -17.029,21.028 -23.117,30.594c-3.183,4.373 -6.348,9.238 -9.297,13.845c-0.309,0.507 -0.914,0.465 -1.874,0.352c-0.644,-0.082 -1.324,-0.136 -1.913,0.058l0.019,0l-0.135,0.036c0.04,-0.015 0.08,-0.015 0.116,-0.036c-3.34,0.371 -5.779,1.485 -8.373,3.824c-3.358,3.984 -5.059,8.788 -5.059,13.981c0,3.574 0.801,7.341 2.439,11.11c-0.684,2.031 -2.263,3.81 -3.687,5.389l-0.801,0.879l-1.015,1.014c-0.644,0.607 -1.409,1.327 -1.934,2.01l-0.059,0.061l-0.041,0.094c-0.055,0.216 -0.095,0.625 0.57,0.939l0.155,0.096l0.176,-0.036c3.104,-0.744 5.057,-3.088 6.952,-5.351c0,0 1.19,-1.366 1.364,-1.581c0.294,-0.04 0.53,0.115 0.919,0.47c0.216,0.176 0.465,0.331 0.741,0.465c0,0.081 0,0.16 0,0.16c0,0 -0.04,1.015 -0.04,1.249c-7.358,7.264 -13.355,11.361 -21.203,15.97l-1.309,0.76l1.525,0.16c3.048,0.31 5.958,-1.411 8.767,-3.069l3.378,-1.855c3.103,-1.599 5.992,-4.037 8.806,-6.382c0,0 2.515,-2.11 2.789,-2.344c0.276,0.06 0.565,0.389 0.78,0.665c0,0 0.18,0.174 0.295,0.295c0.039,0.075 2.344,4.643 2.48,4.917c-0.525,2.15 -0.741,4.315 -0.741,6.483c0,4.704 1.015,9.412 2.01,14c0.994,4.528 2.009,9.193 2.009,13.781c0,0.314 0,0.605 -0.019,0.9c0,1.424 -1.54,3.298 -2.849,3.902c-2.93,0.49 -6.504,0.531 -10.252,0.571c-4.623,0.034 -9.406,0.074 -13.08,1.069c-1.169,0.14 -2.539,0.529 -3.864,0.899c-1.29,0.35 -2.638,0.745 -3.889,0.901l-0.115,0.019l-0.155,0.115l-0.45,0.316c-0.41,0.249 -0.939,0.584 -1.054,1.188c0,0.061 -0.021,0.115 -0.021,0.176c0,0.33 0.155,0.744 0.431,0.993c0.255,0.276 0.565,0.392 0.899,0.377c1.109,0 2.36,-0.471 3.569,-0.9c0.84,-0.315 1.719,-0.625 2.52,-0.765c7.677,-1.305 16.068,-1.05 21.772,-0.585c2.809,-0.04 7.416,-0.135 9.077,-4.137c0.604,-1.621 0.82,-3.125 0.82,-4.57c0,-1.598 -0.252,-3.123 -0.505,-4.702l-0.51,-3.89c-0.33,-2.359 -0.841,-4.723 -1.326,-7.027c-0.86,-4.039 -1.738,-8.218 -1.738,-12.455c0,-0.86 0.04,-1.721 0.115,-2.581c0.08,-0.115 0.174,-0.234 0.295,-0.249c0.234,-0.04 0.665,0.31 1.015,0.586c0.388,0.289 0.798,0.604 1.248,0.719c0.51,0.369 1.075,0.49 1.6,0.55c0.744,0.095 1.135,0.195 1.37,0.76c0.31,3.708 1.6,7.556 2.848,11.285c0.86,2.554 1.74,5.193 2.305,7.787c1.015,4.515 2.029,9.101 2.029,13.631c0,2.695 -0.349,5.368 -1.305,7.988c-1.954,3.587 -6.266,3.587 -10.405,3.608l-1.251,0l-10.196,-0.625c-8.727,-0.626 -17.763,-1.27 -27.021,0.215c0.06,0 -2.069,0.234 -2.069,0.234c-1.148,0.176 -2.223,0.316 -3.379,0.04c-0.429,-0.35 -0.779,-0.939 -0.779,-1.583c0,-0.197 0.04,-0.391 0.119,-0.586c1.661,-3.648 2.481,-6.948 2.481,-9.876c0,-2.365 -0.55,-4.473 -1.625,-6.348c-2.399,-4.588 -5.034,-7.767 -8.278,-9.997c-3.984,-3.963 -7.377,-7.497 -10.405,-10.93c-1.755,-0.215 -2.83,-0.57 -2.97,-0.606l-0.389,-0.14l-1.755,2.19c2.284,2.164 4.413,4.354 6.988,6.698c3.943,2.124 7.128,5.953 9.955,8.552c3.42,3.979 4.24,8.216 3.514,12.94c-0.444,5.588 -5.563,8.006 -9.035,11.696c-1.425,2.654 -2.305,5.837 -0.37,8.297c1.248,3.304 6.538,2.715 7.182,5.427c1.464,5.979 11.831,9.433 13.864,9.568c2.01,0.14 4.099,2.384 4.099,2.384c4.119,3.008 9.527,2.264 12.376,1.835c2.833,-0.431 7.911,1.874 11.111,1.403c4.744,-1.895 8.652,-1.014 13.591,-1.424c15.539,0.234 33.193,-0.115 49.082,1.895c2.949,-0.35 6.463,1.934 9.236,0.529c0.72,-1.194 0.176,-2.19 0,-3.184c-7.596,-11.95 -8.726,-25.36 -4.413,-38.365l2.849,0.155c10.331,1.133 19.703,-0.216 30.169,-6.268c5.229,-2.891 7.983,-9.623 7.747,-14.526c-0.174,-3.164 -1.27,-6.912 -0.739,-10.267c0.195,-1.503 1.169,-3.787 2.479,-4.492c0.525,-0.31 2.459,-1.621 3.064,-3.3c0.995,-2.713 -1.13,-4.003 -1.755,-4.374c1.679,-0.684 3.279,-4.078 1.755,-6.736c-0.975,-1.035 -2.129,-5.174 -2.245,-6.517c-0.37,-1.956 -0.428,-3.945 1.406,-5.194c4.118,-2.17 8.006,-2.699 12.3,-4.588c2.949,-1.236 4.473,-4.3 4.354,-7.054l-1.755,-6.011ZM98.345,272.95c-0.531,0.96 -0.47,1.583 -0.706,2.713c-0.295,0.531 -1.759,-0.174 -2.224,-0.465c-1.819,-0.978 -1.7,-0.468 -2.229,-2.169c-0.289,-1.135 -0.27,-2.459 1.625,-3.453c1.169,-0.665 3.534,-1.464 4.294,0c0.234,0.994 -0.936,2.263 -0.76,3.374ZM108.377,285.681c-2.42,0.058 -4.1,-1.27 -5.209,-4.099c-1.135,-3.633 -1.524,-6.813 -0.744,-10.563c0.253,-0.449 0.778,-0.763 1.133,-0.604l3.359,-1.154c1.13,-0.45 2.071,-0.605 3.14,-0.35l0.665,0.68c-0.042,1.954 -0.525,3.399 -0.565,5.212c-0.197,4.555 -0.586,5.919 0.72,10.252c-0.486,1.155 -1.461,0.605 -2.499,0.626ZM246.687,116.385c-0.329,0.35 -0.739,0.76 -1.285,0.624c-1.249,-0.879 -0.784,-1.989 -0.704,-3.044c0.255,-0.254 0.294,-0.389 0.704,-0.389c0.586,-0.12 0.915,0.329 1.13,0.645c0.37,0.68 0.431,1.46 0.155,2.164ZM151.196,171.5c8.237,-14.778 18.234,-27.605 28.955,-40.786l15.014,-17.064c10.696,-11.42 22.532,-23.136 35.653,-32.192c1.659,-0.941 2.379,-2.89 4.079,-1.525l1.543,1.425c1.035,1.173 0.136,4.513 -0.92,5.448c-0.859,0.705 -1.679,1.37 -2.497,2.048c2.558,2.539 6.266,7.363 9.29,10.486c1.331,1.366 0.921,2.794 3.304,3.884c1.191,0.571 1.54,1.874 0.82,2.989c-2.11,2.714 -5.623,2.304 -8.397,3.009c-10.311,2.284 -18.628,5.229 -30.029,10.757c-9.116,4.843 -16.399,10.191 -23.017,18.488c-2.52,3.125 -5.353,5.488 -7.463,9.236c-6.011,7.713 -10.776,14.956 -15.559,22.903c-1.7,2.5 -2.244,3.748 -4.649,5.993c-1.149,1.114 -2.184,-1.191 -2.909,-1.99c-0.074,-0.079 -0.135,-0.2 -0.195,-0.275c-0.234,0.041 -0.483,-0.019 -0.738,-0.174c-0.647,-0.841 -2.655,-1.196 -2.285,-2.66ZM241.964,114.43c-0.155,2.855 -3.963,5.214 -7.148,6.093c-1.344,0.215 -2.594,0.139 -3.803,0.139c-0.316,-0.213 -0.665,-0.489 -0.625,-0.802c0.215,-1.346 0.43,-2.147 0.525,-3.355l0.78,-0.59c2.813,-0.565 6.247,-1.169 9.081,-1.91c0.41,0.076 0.935,0.036 1.19,0.425ZM212.385,121.873l0.509,-0.665c2.318,-1.095 4.449,-1.955 7.007,-2.675l3.064,-0.799c0.82,-0.744 2.245,-1.349 3.085,-0.294c0.04,3.963 -2.924,8.746 -7.318,10.562c-1.389,0.604 -3.223,0.799 -4.863,1.214c-0.41,-0.355 -1.74,0.389 -2.149,-0.61c0.255,-1.989 1.014,-4.959 0.665,-6.733ZM180.971,192.299c-0.82,0.465 -7.948,-2.25 -7.109,-1.506c-1.698,-1.813 1.075,-2.424 -5.212,-4.783l-1.525,0.155c-0.194,0.176 -0.74,0.471 -1.305,-0.31c-0.059,-0.96 1.19,-0.823 1.579,-1.995c2.245,-5.057 0.996,-8.981 0.781,-14.213l1.66,-4.294c3.162,-3.79 3.143,-4.334 5.291,-6.402c2.131,-3.01 2.581,-3.246 5.449,-5.703c0.47,-0.41 1.326,-0.72 1.894,-0.256c1.345,1.054 1.425,1.759 1.816,3.104c0.665,4.999 -2.365,8.437 -6.013,11.152c-2.581,2.223 -5.059,5.703 -4.494,9.116l0.215,0.214c1.194,-0.975 2.679,-1.559 3.183,-2.794c1.974,-4.408 7.283,-6.421 10.252,-10.247c1.309,-2.302 0.505,-6.266 0,-8.92c0,0.074 3.903,-1.861 2.849,-1.175c1.855,0.78 1.619,2.108 2.518,3.808c1.761,4.414 1.6,8.413 -1.094,12.242l-7.416,9.256c-0.116,4.702 1.169,10.776 -3.319,13.551ZM190.752,147.508c-1.779,0.82 -3.613,0.996 -5.584,0.076c-0.51,-0.665 -2.129,-1.23 -1.485,-2.223c1.427,-2.326 3.845,-4.24 5.33,-6.524l0.704,-0.37c3.004,-3.629 7.772,-6.697 12.281,-9.432l2.715,-1.188c0.604,-0.586 1.989,-1.816 2.518,-0.546c0.115,4.743 -1.895,9.821 -6.423,13.176c-2.733,2.033 -3.923,1.644 -6.368,1.799l-1.27,2.265c-0.289,1.129 -1.284,2.283 -2.418,2.967ZM165.78,174.588l-0.119,3.36c-0.309,3.064 -1.715,6.598 -4.603,8.296c-1.719,-0.408 -1.096,-2.478 -1.525,-3.887c1.115,-3.044 3.238,-5.583 5.018,-8.297c0.255,-0.176 0.485,-0.291 0.74,-0.176l0.489,0.704ZM124.8,291.284c-1.194,1.23 -1.874,0.665 -3.089,0.784c-3.474,-0.96 -5.502,-2.445 -6.477,-6.368c-1.29,-5.467 -1.236,-11.48 0,-17.083l0.544,-0.431c2.439,-0.27 6.113,-0.76 7.127,-0.215c0.996,0.551 -1.074,10.388 -1.074,10.388c-0.08,1.953 0.88,6.952 1.775,9.53c0.18,0.391 2.188,2.38 1.194,3.395ZM149.946,285.21c-0.37,3.52 -4.783,6.603 -6.952,7.228c-2.165,0.625 -8.607,0.31 -10.462,-0.334c-1.874,-0.646 -6.407,-9.487 -5.877,-14.076c0,-3.808 1.034,-9.821 2.555,-10.311c1.524,-0.466 5.546,-0.23 5.546,-0.23c1.679,-0.121 2.969,0.289 4.449,0.465c1.035,0.41 0.315,1.719 0.665,2.478c0.489,1.955 0.604,4.084 1.819,6.034c1.694,3.283 4.798,5.233 7.887,6.387c0.68,0.644 0.291,1.506 0.37,2.359ZM144.987,270.356c0,-0.706 0.042,-0.995 0.565,-1.229l2.909,0c2.6,0.094 5.919,0.933 8.339,-1.565c1.382,0.059 1.503,1.699 1.874,2.989c0.328,1.774 0.255,2.909 0.255,4.507c-0.586,1.27 -1.23,3.204 -2.539,4.024c-2.09,0.975 -4.2,0.78 -6.21,0c-3.028,-1.794 -5.233,-4.668 -5.193,-8.726ZM204.577,256.455c-3.888,13.491 -5.743,20.438 0.33,34.323c0.059,0.525 0.645,2.265 0,2.48c-6.717,-1.351 -8.493,-1.935 -14.801,-2.384c-5.816,-1.014 -15.503,0.604 -21.96,0.55c-5.059,0.174 -10.198,0.349 -15.485,0.993c-1.585,-0.819 -0.35,-2.599 -0.236,-3.768c0.585,-1.814 0.646,-2.755 0.819,-4.884c0.82,-0.874 1.835,-0.41 2.83,-0.82c3.399,-0.523 6.287,-3.532 7.107,-6.712c1.075,-3.338 -0.094,-7.052 -1.64,-10.231c-0.289,-0.939 -1.579,-1.659 -1.054,-2.599c4.179,-7.827 1.23,-15.774 -0.174,-23.406c-1.466,-5.43 -3.71,-11.428 -4.609,-17.144c0.195,-0.585 -0.565,-1.955 0.725,-2.05l0.469,0.095c4.47,5.427 17.279,16.889 22.078,20.618c4.789,3.729 17.183,10.956 25.246,12.885c0.765,0.644 0.646,1.175 0.355,2.054Z" style="fill:#a3b5c3;"/><path id="_48164760_" d="M238.585,139.266c0.82,1.075 1.369,2.016 0.704,3.01c-1.524,0.115 -1.758,-1.814 -3.043,-2.46c-2.129,-1.054 -4.024,0.055 -6.132,0.586c-5.348,2.304 -9.821,6.891 -15.015,9.29c-0.646,0 -1.23,-0.058 -1.639,-0.523c0.878,-0.88 2.303,-1.056 3.417,-1.78c5.35,-3.513 10.543,-9.037 17.24,-10.051c1.774,-0.121 3.359,0.525 4.468,1.928Z" style="fill:#a3b5c3;"/><path id="_82784152_" d="M238.177,148.349c-0.41,-1.309 -0.35,-3.419 -1.929,-3.714c-0.355,0.824 0,1.719 -0.355,2.484c-0.484,0.584 -1.309,1.285 -2.245,1.05c-6.481,0.414 -11.306,6.112 -16.827,9.061c-1.895,1.056 -4.006,1.66 -6.014,2.185c-0.175,0.295 -0.12,0.705 0.174,0.879c6.129,0.646 12.181,1.23 18.255,1.874l6.757,-0.76c0.195,-0.878 -0.88,-1.639 -0.705,-2.654c0.78,-2.752 1.015,-5.762 0.255,-8.355c0.525,-1.406 2.52,-0.355 2.634,-2.05ZM233.454,158.79c-0.839,1.234 -2.15,0.161 -3.298,0.316c-2.655,-0.316 -7.128,0.309 -10.058,-0.061c-0.449,-0.255 -0.759,-0.701 -0.508,-1.111c0.45,-0.744 1.679,-0.784 2.443,-1.349c3.2,-1.989 6.558,-3.902 10.212,-4.762c0.665,-0.1 1.209,0.45 1.324,0.918c0.429,1.695 0.161,4.409 -0.115,6.049Z" style="fill:#a3b5c3;"/><path id="_81751608_" d="M241.615,178.688c0.195,-0.316 0.45,-0.665 0.739,-0.686c0.37,0.142 0.586,0.316 0.646,1.035c-0.06,1.136 -0.331,2.324 -0.646,3.595c-0.349,1.425 -0.72,2.908 -0.72,4.353c0,0.625 0.076,1.269 0.251,1.895c0.839,1.054 2.169,1.309 3.733,0.759c0.036,-0.021 2.694,-1.54 2.694,-1.54c2.305,-1.369 4.468,-2.673 8.533,-3.708c0.074,-0.021 0.095,0.015 0.114,0.034c0.081,0.061 0.1,0.215 0.1,0.41c0,0.336 -0.1,0.82 -0.274,1.196c-0.155,0.074 -3.884,1.734 -3.884,1.734c-2.928,1.288 -5.977,2.618 -8.828,4.258c-0.839,0.155 -1.619,-0.295 -2.363,-0.744l-0.195,-0.095c-1.075,-1.484 -1.424,-2.909 -1.424,-4.354c0,-1.29 0.274,-2.579 0.565,-3.903c0.255,-1.23 0.549,-2.499 0.604,-3.85c0.1,-0.094 0.355,-0.389 0.355,-0.389Z" style="fill:#a3b5c3;"/><path id="_111035472_" d="M149.887,177.479c2.129,4.352 -0.114,8.471 0,12.999c0.351,1.29 2.89,1.466 2.129,3.009c-0.584,0.41 -1.425,0.525 -2.069,0.061c-1.169,-0.765 -1.585,-1.349 -1.874,-2.715c-0.315,-3.982 2.87,-8.652 0.061,-12.421c-0.82,-0.818 -2.016,-1.638 -3.185,-1.698c-2.539,0.47 -3.828,3.183 -4.708,5.178c-1.345,5.287 -1.715,10.891 2.949,15.13c2.715,1.579 5.998,3.298 6.192,6.717c0.391,0.584 1.209,1.149 1.874,0.82c0.82,-0.06 0.935,-2.423 2.105,-1.29l0.355,0.801c-0.295,0.954 -0.584,2.597 -2.108,2.652c-0.762,0.176 -1.6,-0.234 -2.226,-0.699c-1.658,-1.7 -0.374,-4.297 -3.143,-5.408c-4.589,-1.425 -7.598,-6.248 -8.067,-10.781c-0.291,-4.353 -0.096,-9.117 3.654,-12.941c1.483,-1.114 3.414,-1.84 5.308,-1.233c1.054,0.179 2.284,0.918 2.753,1.819Z" style="fill:#a3b5c3;"/><path id="_111045264_" d="M92.348,209.303c-8.372,3.884 -10.932,13.879 -11.047,14.289l-0.215,0.899l0.855,0.295c0.335,0.096 8.107,2.654 17.615,-2.014c9.566,-4.683 11.534,-14.174 11.615,-14.584l0.195,-0.996l-1.014,-0.154c-0.391,-0.08 -9.761,-1.544 -18.004,2.265ZM93.187,211.116c6.113,-2.849 13.105,-2.518 15.74,-2.263c-0.744,2.418 -3.298,8.726 -10.252,12.145c-6.967,3.414 -12.965,2.594 -15.149,2.129c0.82,-2.424 3.514,-9.156 9.661,-12.011Z" style="fill:#a3b5c3;"/><path id="_111057648_" d="M100.704,190.498c-8.391,3.79 -11.495,13.67 -11.616,14.101l-0.289,0.935l0.935,0.295c0.329,0.094 8.082,2.418 17.608,-2.13c9.606,-4.609 11.656,-13.765 11.735,-14.154l0.216,-0.996l-1.015,-0.18c-0.37,-0.075 -9.311,-1.6 -17.574,2.129ZM101.524,192.299c6.094,-2.754 12.751,-2.405 15.309,-2.131c-0.799,2.38 -3.398,8.412 -10.344,11.731c-6.915,3.304 -12.871,2.679 -15.136,2.269c0.96,-2.478 4.024,-9.102 10.171,-11.869Z" style="fill:#a3b5c3;"/><path id="_82872168_" d="M111.621,172.38c-8.418,3.693 -12.065,13.49 -12.202,13.9l-0.374,1l1.036,0.291c0.334,0.1 8.066,2.168 17.593,-2.286c9.661,-4.487 11.771,-13.315 11.871,-13.704l0.215,-0.995l-0.995,-0.195c-0.356,-0.06 -8.847,-1.661 -17.144,1.989ZM112.401,174.199c6.093,-2.678 12.4,-2.304 14.879,-2.013c-0.82,2.302 -3.493,8.081 -10.426,11.306c-6.852,3.204 -12.749,2.752 -15.115,2.378c1.136,-2.499 4.553,-8.977 10.662,-11.671Z" style="fill:#a3b5c3;"/><path id="_111066936_" d="M122.436,154.477c-8.416,3.612 -12.594,13.294 -12.749,13.704l-0.471,1.075l1.136,0.276c0.328,0.079 8.041,1.934 17.608,-2.405c9.706,-4.389 11.871,-12.905 11.971,-13.275l0.255,-0.996l-1.014,-0.213c-0.337,-0.081 -8.378,-1.721 -16.736,1.834ZM123.216,156.312c6.053,-2.575 12.047,-2.186 14.431,-1.895c-0.859,2.248 -3.574,7.772 -10.507,10.896c-6.772,3.083 -12.63,2.813 -15.069,2.499c1.305,-2.559 5.053,-8.903 11.145,-11.5Z" style="fill:#a3b5c3;"/><path id="_111358368_" d="M137.432,136.572c-8.437,3.514 -13.141,13.101 -13.335,13.511l-0.546,1.134l1.23,0.275c0.309,0.055 8.002,1.674 17.61,-2.539c9.721,-4.299 11.99,-12.496 12.084,-12.851l0.255,-0.973l-0.993,-0.255c-0.316,-0.057 -7.908,-1.776 -16.305,1.698ZM138.191,138.407c6.034,-2.499 11.677,-2.089 13.982,-1.774c-0.896,2.204 -3.65,7.437 -10.583,10.501c-6.757,2.968 -12.534,2.855 -15.034,2.6c1.504,-2.6 5.562,-8.807 11.635,-11.327Z" style="fill:#a3b5c3;"/><path id="_111528120_" d="M153.971,119.295c-8.458,3.417 -13.711,12.925 -13.925,13.335l-0.64,1.188l1.324,0.255c0.335,0.061 8.008,1.445 17.614,-2.694c9.782,-4.178 12.121,-12.045 12.221,-12.375l0.276,-1l-1,-0.234c-0.291,-0.075 -7.458,-1.876 -15.87,1.525ZM154.712,121.129c5.971,-2.399 11.304,-1.97 13.529,-1.64c-0.935,2.129 -3.769,7.128 -10.681,10.077c-6.678,2.867 -12.396,2.888 -14.975,2.712c1.68,-2.639 6.072,-8.686 12.127,-11.149Z" style="fill:#a3b5c3;"/><path id="_114230976_" d="M171.619,102.975c-8.471,3.298 -14.253,12.725 -14.489,13.135l-0.76,1.25l1.445,0.235c0.335,0.039 7.987,1.209 17.614,-2.81c9.816,-4.084 12.221,-11.637 12.315,-11.95l0.316,-0.975l-0.975,-0.276c-0.276,-0.073 -7.013,-1.934 -15.466,1.391ZM172.339,104.809c5.918,-2.305 10.956,-1.874 13.101,-1.545c-0.994,2.07 -3.864,6.814 -10.776,9.687c-6.578,2.749 -12.26,2.928 -14.914,2.809c1.893,-2.675 6.578,-8.591 12.589,-10.951Z" style="fill:#a3b5c3;"/><path id="_48808752_" d="M189.973,87.9c-8.497,3.219 -14.799,12.555 -15.054,12.946l-0.901,1.343l1.606,0.196c0.309,0.04 7.941,0.96 17.608,-2.949c9.842,-3.978 12.342,-11.206 12.436,-11.516l0.316,-0.94l-0.96,-0.31c-0.252,-0.079 -6.538,-2.014 -15.051,1.23ZM190.672,89.734c5.879,-2.223 10.602,-1.774 12.657,-1.424c-1.035,2.01 -3.984,6.523 -10.837,9.292c-6.542,2.639 -12.145,2.949 -14.86,2.908c2.089,-2.713 7.048,-8.492 13.04,-10.776Z" style="fill:#a3b5c3;"/><path id="_48137184_" d="M208.616,74.389c-8.512,3.145 -15.324,12.396 -15.619,12.785l-1.035,1.391l1.74,0.175c0.31,0.04 7.927,0.72 17.608,-3.084c9.901,-3.888 12.455,-10.782 12.555,-11.071l0.331,-0.941l-0.935,-0.309c-0.235,-0.1 -6.093,-2.09 -14.645,1.054ZM209.3,76.244c5.819,-2.129 10.252,-1.7 12.202,-1.33c-1.075,1.934 -4.06,6.208 -10.912,8.902c-6.462,2.539 -11.99,2.969 -14.78,2.99c2.284,-2.736 7.534,-8.357 13.49,-10.562Z" style="fill:#a3b5c3;"/><path id="_82940240_" d="M78.957,190.365c-0.255,0.309 -6.072,7.866 -6.676,16.964c-0.607,9.275 6.967,16.342 7.301,16.639l0.665,0.623l0.68,-0.623c0.255,-0.216 6.247,-5.858 6.697,-16.481c0.491,-10.7 -6.946,-17.009 -7.262,-17.278l-0.78,-0.646l-0.625,0.802ZM74.228,208.362c0,-0.289 0.021,-0.584 0.042,-0.894c0.429,-6.817 4.118,-12.812 5.603,-14.974c1.719,1.773 5.801,6.732 5.801,14.054c0,0.274 0,0.565 -0.018,0.86c-0.356,7.811 -3.945,12.691 -5.43,14.389c-1.679,-1.795 -5.998,-7.027 -5.998,-13.435Z" style="fill:#a3b5c3;"/><path id="_82893400_" d="M90.767,169.981c-0.194,0.215 -4.938,5.448 -6.951,12.946c-0.271,1.033 -0.486,2.105 -0.626,3.238c-1.088,8.983 5.394,16.345 5.685,16.654l0.623,0.726l0.746,-0.625c0.27,-0.216 6.381,-5.528 7.632,-15.856c1.249,-10.426 -5.408,-16.868 -5.703,-17.122l-0.72,-0.705l-0.686,0.744ZM85.051,188.194c0,-0.584 0.034,-1.17 0.113,-1.774c0.116,-1.035 0.312,-2.029 0.565,-2.97c1.445,-5.387 4.455,-9.585 5.8,-11.285c1.428,1.679 4.513,6.092 4.513,12.381c0,0.72 -0.04,1.504 -0.14,2.284c-0.895,7.517 -4.643,12.181 -6.208,13.86c-1.405,-1.855 -4.643,-6.733 -4.643,-12.496Z" style="fill:#a3b5c3;"/><path id="_82889776_" d="M104.023,150.867c-0.215,0.195 -5.193,4.819 -7.711,12.281c-0.31,0.954 -0.586,1.971 -0.801,3.14c-1.559,8.692 3.85,16.324 4.063,16.658l0.607,0.835l0.818,-0.64c0.255,-0.214 6.523,-5.212 8.533,-15.228c2.029,-10.137 -3.863,-16.715 -4.118,-16.991l-0.665,-0.72l-0.726,0.665ZM97.232,169.492c0,-0.935 0.079,-1.916 0.253,-2.87c0.176,-1.054 0.41,-1.974 0.701,-2.833c1.798,-5.309 4.983,-9.138 6.427,-10.678c1.129,1.58 3.355,5.409 3.355,10.663c0,1.19 -0.116,2.438 -0.391,3.763c-1.444,7.207 -5.307,11.64 -6.986,13.301c-1.117,-1.876 -3.359,-6.289 -3.359,-11.346Z" style="fill:#a3b5c3;"/><path id="_82869456_" d="M118.588,132.998c-0.23,0.176 -5.423,4.219 -8.473,11.622c-0.349,0.854 -0.663,1.855 -0.933,3.004c-2.055,8.397 2.224,16.323 2.418,16.654l0.525,0.975l0.921,-0.66c0.273,-0.181 6.657,-4.883 9.451,-14.565c2.809,-9.842 -2.305,-16.578 -2.518,-16.854l-0.605,-0.78l-0.786,0.604ZM110.626,152.312c0,-1.369 0.135,-2.814 0.464,-4.218c0.255,-1.054 0.55,-1.955 0.86,-2.733c2.15,-5.194 5.49,-8.668 7.033,-10.077c0.84,1.443 2.339,4.628 2.339,8.905c0,1.621 -0.195,3.395 -0.739,5.29c-1.995,6.891 -5.973,11.11 -7.772,12.73c-0.78,-1.775 -2.185,-5.563 -2.185,-9.897Z" style="fill:#a3b5c3;"/><path id="_82898896_" d="M134.368,116.365c-0.234,0.14 -5.643,3.593 -9.217,10.936c-0.41,0.819 -0.78,1.734 -1.134,2.909c-2.52,8.102 0.663,16.284 0.819,16.633l0.451,1.115l1.014,-0.665c0.274,-0.194 6.777,-4.568 10.332,-13.94c3.608,-9.551 -0.726,-16.403 -0.92,-16.694l-0.525,-0.819l-0.82,0.525ZM125.051,136.827c0,-1.934 0.236,-4.002 0.859,-6.031c0.337,-1.056 0.646,-1.895 1.015,-2.621c2.499,-5.132 6.018,-8.257 7.619,-9.505c0.604,1.248 1.539,3.729 1.539,7.066c0,2.029 -0.351,4.355 -1.305,6.894c-2.479,6.581 -6.603,10.581 -8.512,12.205c-0.49,-1.624 -1.215,-4.573 -1.215,-8.008Z" style="fill:#a3b5c3;"/><path id="_117735336_" d="M151.256,100.94c-0.234,0.121 -5.837,2.97 -9.995,10.252c-0.431,0.8 -0.841,1.68 -1.269,2.794c-3.01,7.806 -0.901,16.245 -0.801,16.594l0.33,1.289l1.135,-0.705c0.269,-0.155 6.907,-4.237 11.226,-13.296c4.394,-9.235 0.84,-16.202 0.68,-16.497l-0.45,-0.861l-0.856,0.43ZM140.381,123.317c0,-2.619 0.33,-5.702 1.445,-8.632c0.41,-1.014 0.759,-1.813 1.169,-2.518c2.868,-5.019 6.523,-7.807 8.222,-8.903c0.37,1.035 0.88,2.835 0.88,5.314c0,2.339 -0.47,5.227 -2.014,8.452c-2.984,6.287 -7.224,10.055 -9.253,11.595c-0.215,-1.209 -0.449,-3.083 -0.449,-5.308Z" style="fill:#a3b5c3;"/><path id="_47326760_" d="M169.18,86.71c-0.255,0.096 -6.032,2.359 -10.76,9.566c-0.486,0.761 -0.956,1.64 -1.445,2.675c-3.454,7.517 -2.439,16.205 -2.4,16.554l0.176,1.445l1.289,-0.7c0.29,-0.155 7.027,-3.903 12.107,-12.65c5.193,-8.947 2.418,-16.035 2.299,-16.326l-0.371,-0.919l-0.895,0.355ZM156.391,112.092c0,-3.085 0.389,-7.987 2.384,-12.321c0.444,-0.96 0.874,-1.74 1.303,-2.405c3.244,-4.938 7.049,-7.377 8.807,-8.337c0.195,0.805 0.392,1.974 0.392,3.535c0,2.597 -0.586,6.132 -2.83,10.035c-3.499,5.998 -7.854,9.532 -10.016,11.032c-0.021,-0.431 -0.04,-0.935 -0.04,-1.539Z" style="fill:#a3b5c3;"/><path id="_81988928_" d="M188.06,73.665c-0.255,0.059 -6.21,1.759 -11.522,8.887c-0.544,0.72 -1.094,1.56 -1.6,2.514c-3.942,7.228 -4.003,16.169 -4.003,16.56l0.021,1.579l1.404,-0.701c0.315,-0.154 7.187,-3.613 13.025,-12.045c5.933,-8.612 3.963,-15.815 3.884,-16.11l-0.276,-0.954l-0.933,0.27ZM176.678,86.026c0.465,-0.881 0.954,-1.619 1.445,-2.305c3.629,-4.844 7.592,-6.973 9.427,-7.753c0.039,0.471 0.1,1.017 0.1,1.74c0,2.654 -0.646,6.912 -3.905,11.637c-3.963,5.703 -8.437,9.02 -10.741,10.486c0.215,-2.909 0.959,-8.867 3.674,-13.805Z" style="fill:#a3b5c3;"/><path id="_82907120_" d="M207.717,61.774c-0.251,0.039 -6.343,1.174 -12.281,8.162c-5.873,6.973 -7.263,18.453 -7.318,18.939l-0.195,1.719l1.58,-0.705c0.295,-0.134 7.303,-3.279 13.881,-11.421c6.717,-8.277 5.527,-15.599 5.488,-15.894l-0.176,-0.974l-0.979,0.174ZM196.961,71.227c4.024,-4.744 8.121,-6.563 10.016,-7.188c0.021,0.039 0.021,0.06 0.021,0.119c0,2.304 -0.605,7.458 -5.154,13.08c-4.413,5.448 -9.043,8.533 -11.442,9.936c0.646,-3.532 2.441,-11.085 6.559,-15.947Z" style="fill:#a3b5c3;"/><path id="_82162616_" d="M19.409,160.139c0,47.974 25.944,94.107 67.726,120.449l1.74,1.073l1.248,-1.623c0.35,-0.451 0.49,-0.895 0.49,-1.29c0,-1.035 -0.879,-1.834 -1.37,-2.299l-2.418,-2.324c-8.632,-9.782 -10.936,-19.059 -10.936,-26.186c0,-7.888 2.834,-13.156 3.068,-13.551l0.761,-1.404l-1.056,-1.19c-17.669,-19.697 -26.98,-44.46 -26.98,-71.655c0,-59.824 48.654,-108.476 108.478,-108.476c16.633,0 32.583,3.648 47.422,10.876l1.545,0.759l21.787,-24.876l-2.399,-1.345c-20.797,-11.576 -44.439,-17.687 -68.355,-17.687c-77.629,0 -140.751,63.141 -140.751,140.749ZM23.857,160.139c0,-75.148 61.153,-136.282 136.303,-136.282c22.216,0 44.184,5.509 63.687,15.835c-2.87,3.264 -14.136,16.15 -15.895,18.118c-14.994,-7.027 -31.059,-10.62 -47.792,-10.62c-62.284,0 -112.972,50.667 -112.972,112.949c0,27.785 9.413,53.146 27.201,73.49c-1.035,2.363 -2.855,7.537 -2.855,14.389c0,5.663 1.31,12.456 5.314,19.684c-32.978,-26.262 -52.991,-66.213 -52.991,-107.563Z" style="fill:#a3b5c3;"/><path id="_49059128_" d="M209.536,58.536c-15.464,-7.538 -32.06,-11.346 -49.378,-11.346c-62.283,0 -112.971,50.667 -112.971,112.949c0,28.291 9.726,54.121 28.136,74.644l1.934,2.144l8.592,-12.959l-0.45,-0.531c-0.78,-0.094 -1.405,-0.215 -1.874,-0.31c0.114,-0.355 0.29,-0.82 0.484,-1.33c-0.659,-0.799 -1.343,-1.619 -1.989,-2.439c-0.684,1.109 -1.343,1.91 -1.795,2.439c-1.679,-1.795 -5.998,-7.027 -5.998,-13.435c0,-0.195 0.021,-0.41 0.021,-0.605c-8.023,-14.134 -12.105,-30.084 -12.105,-47.618c0,-54.04 43.968,-98.01 98.015,-98.01c13.254,0 26.045,2.593 38.09,7.692c1.291,-1.349 2.56,-2.405 3.75,-3.223c-13.18,-5.899 -27.235,-8.943 -41.84,-8.943c-56.525,0 -102.504,45.979 -102.504,102.484c0,24.501 7.653,46.039 22.626,64.118c-0.854,1.309 -2.088,3.164 -3.472,5.272c-16.4,-19.327 -25.127,-43.209 -25.127,-69.39c0,-59.824 48.654,-108.476 108.477,-108.476c15.894,0 31.138,3.378 45.414,9.976c-0.606,1.289 -1.175,2.56 -1.779,3.83c1.328,-0.747 2.424,-1.196 3.183,-1.43c0.021,0.039 0.021,0.06 0.021,0.119c0,1.679 -0.331,4.864 -2.265,8.648l0.504,0.255l6.268,-13.59l-1.968,-0.935Z" style="fill:#a3b5c3;"/><path id="_122255456_" d="M208.522,36.373l-10.802,13.671c0.999,0.329 1.974,0.678 2.948,1.054l10.721,-13.55c-0.939,-0.41 -1.893,-0.799 -2.867,-1.175Z" style="fill:#a3b5c3;"/><path id="_111525640_" d="M187.395,30.086l-6.308,15.604c0.999,0.176 1.993,0.37 2.968,0.586l6.289,-15.546c-0.996,-0.231 -1.975,-0.431 -2.949,-0.644Z" style="fill:#a3b5c3;"/><path id="_81748496_" d="M162.249,27.277l-1.545,16.539c0.993,0 1.995,0.015 2.969,0.034l1.559,-16.494c-0.994,-0.021 -1.989,-0.06 -2.983,-0.079Z" style="fill:#a3b5c3;"/><path id="_48970056_" d="M137.742,29.151l3.143,16.244c0.981,-0.155 1.955,-0.315 2.949,-0.45l-3.143,-16.265c-0.994,0.14 -1.969,0.295 -2.949,0.471Z" style="fill:#a3b5c3;"/><path id="_47284000_" d="M113.984,35.513l7.438,14.92c0.935,-0.334 1.876,-0.644 2.83,-0.959l-7.458,-14.955c-0.934,0.335 -1.875,0.664 -2.81,0.994Z" style="fill:#a3b5c3;"/><path id="_48122368_" d="M91.432,46.43l11.091,12.67c0.875,-0.504 1.755,-0.995 2.654,-1.484l-11.149,-12.731c-0.875,0.51 -1.736,1.035 -2.596,1.545Z" style="fill:#a3b5c3;"/><path id="_82943656_" d="M70.951,61.719l14,9.721c0.778,-0.665 1.579,-1.309 2.384,-1.974l-14.1,-9.782c-0.76,0.665 -1.54,1.351 -2.284,2.035Z" style="fill:#a3b5c3;"/><path id="_111743952_" d="M53.516,80.908l16.09,6.266c0.659,-0.819 1.324,-1.619 1.989,-2.399l-16.205,-6.326c-0.623,0.819 -1.248,1.639 -1.874,2.459Z" style="fill:#a3b5c3;"/><path id="_81670368_" d="M40.066,103.264l17.313,2.42c0.492,-0.954 1,-1.874 1.525,-2.789l-17.474,-2.44c-0.469,0.935 -0.939,1.876 -1.364,2.809Z" style="fill:#a3b5c3;"/><path id="_82778632_" d="M31.24,127.786l17.648,-1.694c0.334,-1.02 0.665,-2.056 0.996,-3.07l-17.826,1.7c-0.295,1.014 -0.563,2.029 -0.818,3.064Z" style="fill:#a3b5c3;"/><path id="_49035160_" d="M27.411,153.461l17.083,-5.932c0.121,-1.095 0.255,-2.189 0.391,-3.283l-17.28,6.011c-0.075,1.056 -0.134,2.131 -0.194,3.204Z" style="fill:#a3b5c3;"/><path id="_82868520_" d="M28.741,179.408l15.424,-10.131c-0.081,-1.13 -0.155,-2.266 -0.215,-3.414l-15.68,10.286c0.155,1.094 0.295,2.169 0.471,3.259Z" style="fill:#a3b5c3;"/><path id="_82947392_" d="M35.319,204.793l12.515,-13.784c-0.31,-1.155 -0.586,-2.324 -0.86,-3.48l-12.785,14.081c0.368,1.075 0.739,2.129 1.13,3.183Z" style="fill:#a3b5c3;"/><path id="_82847744_" d="M47.093,229.04l8.862,-16.849c-0.544,-1.094 -1.109,-2.184 -1.619,-3.298l-9.022,17.164c0.585,0.994 1.175,2.008 1.779,2.983Z" style="fill:#a3b5c3;"/><path id="_47020472_" d="M62.183,249.248l4.748,-19.503c-0.784,-1.036 -1.565,-2.09 -2.303,-3.144l-4.823,19.934c0.778,0.918 1.579,1.813 2.378,2.713Z" style="fill:#a3b5c3;"/><path id="_48970168_" d="M206.312,74.054c0.41,0.256 0.82,0.531 1.209,0.805c0.376,-0.16 0.726,-0.334 1.096,-0.47c0.429,-0.155 0.86,-0.295 1.29,-0.429c-0.92,-0.604 -1.775,-1.29 -2.599,-2.014c-0.27,0.684 -0.625,1.389 -0.996,2.108Z" style="fill:#a3b5c3;"/></g></svg>