<?xml version="1.0" standalone="no"?><!DOCTYPE svg PUBLIC "-//W3C//DTD SVG 1.1//EN" "http://www.w3.org/Graphics/SVG/1.1/DTD/svg11.dtd"><svg width="100%" height="100%" viewBox="0 0 138 112" version="1.1" xmlns="http://www.w3.org/2000/svg" xmlns:xlink="http://www.w3.org/1999/xlink" xml:space="preserve" style="fill-rule:evenodd;clip-rule:evenodd;stroke-linecap:round;stroke-linejoin:round;stroke-miterlimit:1.41421;"><g><clipPath id="_clip1"><path d="M133.72,-18.469l0,109.528l-132,0l0,-109.528l132,0ZM65.495,4.025c-19.868,0 -36,16.131 -36,36c0,19.869 16.132,36 36,36c19.869,0 36,-16.131 36,-36c0,-19.869 -16.131,-36 -36,-36Z"/></clipPath><g clip-path="url(#_clip1)"><g><g><clipPath id="_clip2"><path d="M73.723,73.437l-72.446,0l0,-72.445l72.446,0l0,72.445ZM45.424,58.722c2.499,0 4.527,2.029 4.527,4.528c0,2.499 -2.028,4.528 -4.527,4.528c-2.499,0 -4.528,-2.029 -4.528,-4.528c0,-2.499 2.029,-4.528 4.528,-4.528ZM10.333,19.104c2.499,0 4.528,2.029 4.528,4.528c0,2.498 -2.029,4.527 -4.528,4.527c-2.499,0 -4.528,-2.029 -4.528,-4.527c0,-2.499 2.029,-4.528 4.528,-4.528ZM57.875,13.444c2.499,0 4.528,2.029 4.528,4.528c0,2.499 -2.029,4.528 -4.528,4.528c-2.499,0 -4.528,-2.029 -4.528,-4.528c0,-2.499 2.029,-4.528 4.528,-4.528Z"/></clipPath><g clip-path="url(#_clip2)"><circle cx="37.5" cy="37.215" r="5.66" style="fill:#12ac87;"/><ellipse cx="37.5" cy="37.129" rx="13.583" ry="31.129" style="fill:none;stroke-width:0.75px;stroke:#12ac87;"/><path d="M64.458,21.564c3.749,6.493 -5.288,18.738 -20.166,27.328c-14.879,8.591 -30.002,10.294 -33.75,3.801c-3.749,-6.492 5.288,-18.738 20.166,-27.328c14.879,-8.59 30.002,-10.293 33.75,-3.801Z" style="fill:none;stroke-width:0.75px;stroke:#12ac87;"/><path d="M10.542,21.564c3.748,-6.492 18.871,-4.789 33.75,3.801c14.878,8.59 23.915,20.836 20.166,27.328c-3.748,6.493 -18.871,4.79 -33.75,-3.801c-14.878,-8.59 -23.915,-20.835 -20.166,-27.328" style="fill:none;stroke-width:0.75px;stroke:#12ac87;"/></g></g><circle cx="10.333" cy="23.632" r="3.396" style="fill:#12ac87;"/><circle cx="45.424" cy="63.25" r="3.396" style="fill:#12ac87;"/><circle cx="57.875" cy="17.972" r="3.396" style="fill:#12ac87;"/></g></g></g><g><clipPath id="_clip3"><path d="M65.495,10.775c-16.143,0 -29.25,13.106 -29.25,29.25c0,16.143 13.107,29.25 29.25,29.25c16.144,0 29.25,-13.107 29.25,-29.25c0,-16.144 -13.106,-29.25 -29.25,-29.25Z"/></clipPath><g clip-path="url(#_clip3)"><g><g><clipPath id="_clip4"><path d="M102.269,81.536l-95.788,0l0,-95.788l95.788,0l0,95.788ZM64.852,62.079c3.304,0 5.987,2.683 5.987,5.987c0,3.304 -2.683,5.987 -5.987,5.987c-3.304,0 -5.987,-2.683 -5.987,-5.987c0,-3.304 2.683,-5.987 5.987,-5.987ZM18.454,9.695c3.305,0 5.987,2.683 5.987,5.987c0,3.304 -2.682,5.987 -5.987,5.987c-3.304,0 -5.986,-2.683 -5.986,-5.987c0,-3.304 2.682,-5.987 5.986,-5.987ZM81.316,2.212c3.304,0 5.986,2.682 5.986,5.986c0,3.304 -2.682,5.987 -5.986,5.987c-3.305,0 -5.987,-2.683 -5.987,-5.987c0,-3.304 2.682,-5.986 5.987,-5.986Z"/></clipPath><g clip-path="url(#_clip4)"><circle cx="54.375" cy="33.642" r="7.483" style="fill:#12ac87;"/><ellipse cx="54.375" cy="33.528" rx="17.96" ry="41.159" style="fill:none;stroke-width:0.75px;stroke:#12ac87;"/><path d="M90.02,12.949c4.956,8.584 -6.992,24.775 -26.665,36.133c-19.673,11.358 -39.669,13.61 -44.625,5.026c-4.956,-8.585 6.992,-24.776 26.665,-36.134c19.673,-11.358 39.669,-13.61 44.625,-5.025Z" style="fill:none;stroke-width:0.75px;stroke:#12ac87;"/><path d="M18.73,12.949c4.956,-8.585 24.952,-6.333 44.625,5.025c19.673,11.358 31.621,27.549 26.665,36.134c-4.956,8.584 -24.952,6.332 -44.625,-5.026c-19.673,-11.358 -31.621,-27.549 -26.665,-36.133" style="fill:none;stroke-width:0.75px;stroke:#12ac87;"/></g></g><circle cx="18.454" cy="15.682" r="4.49" style="fill:#12ac87;"/><circle cx="64.852" cy="68.066" r="4.49" style="fill:#12ac87;"/><circle cx="81.316" cy="8.198" r="4.49" style="fill:#12ac87;"/></g></g></g><circle cx="65.495" cy="40.025" r="36" style="fill:none;stroke-width:1px;stroke:#28a7e9;"/><circle cx="65.495" cy="40.025" r="29.25" style="fill:none;stroke-width:1px;stroke:#28a7e9;"/><g><path d="M91.02,65.776l10.5,10.5" style="fill:none;stroke-width:2px;stroke-linecap:butt;stroke:#28a7e9;"/><path d="M133.72,95.747l-19.472,-19.471c-3.512,-3.512 -9.215,-3.512 -12.728,0c-3.498,3.499 -3.512,9.171 -0.041,12.687l0.041,0.041l19.472,19.471l12.728,-12.728Z" style="fill:none;stroke-width:1px;stroke:#28a7e9;"/></g></svg>