<?xml version="1.0" standalone="no"?><!DOCTYPE svg PUBLIC "-//W3C//DTD SVG 1.1//EN" "http://www.w3.org/Graphics/SVG/1.1/DTD/svg11.dtd"><svg width="100%" height="100%" viewBox="0 0 315 180" version="1.1" xmlns="http://www.w3.org/2000/svg" xmlns:xlink="http://www.w3.org/1999/xlink" xml:space="preserve" style="fill-rule:evenodd;clip-rule:evenodd;stroke-linejoin:round;stroke-miterlimit:1.41421;"><g><path d="M315,9.022c0,-4.979 -4.043,-9.022 -9.022,-9.022l-296.956,0c-4.979,0 -9.022,4.043 -9.022,9.022l0,161.956c0,4.979 4.043,9.022 9.022,9.022l296.956,0c4.979,0 9.022,-4.043 9.022,-9.022l0,-161.956Z" style="fill:#c1e0f5;"/><g><path d="M277.554,29.912c0,-5.174 -4.201,-9.375 -9.375,-9.375l-221.25,0c-5.174,0 -9.375,4.201 -9.375,9.375l0,18.75c0,5.174 4.201,9.375 9.375,9.375l221.25,0c5.174,0 9.375,-4.201 9.375,-9.375l0,-18.75Z" style="fill:#8391ae;"/><path d="M277.554,148.213c0,-2.07 -1.681,-3.75 -3.75,-3.75l-232.608,0c-2.069,0 -3.75,1.68 -3.75,3.75l0,7.5c0,2.07 1.681,3.75 3.75,3.75l232.608,0c2.069,0 3.75,-1.68 3.75,-3.75l0,-7.5Z" style="fill:#cecece;"/><rect x="37.554" y="39.287" width="240" height="112.5" style="fill:#525760;"/></g><g transform="matrix(0.752688,-1.28497e-17,-1.28497e-17,0.805151,-1673.7,-1112.53)"><text x="2288.6px" y="1462.99px" style="font-family:Source Sans Pro;font-size:24px;fill:#fff;">&gt; import elek<tspan x="2420px 2428.11px 2436.2px " y="1462.99px 1462.99px 1462.99px ">tro</tspan>nn</text><text x="2288.6px" y="1486.99px" style="font-family:Source Sans Pro;font-size:24px;fill:#fff;">&gt;</text></g></g></svg>