<?xml version="1.0" standalone="no"?><!DOCTYPE svg PUBLIC "-//W3C//DTD SVG 1.1//EN" "http://www.w3.org/Graphics/SVG/1.1/DTD/svg11.dtd"><svg width="100%" height="100%" viewBox="0 0 72 72" version="1.1" xmlns="http://www.w3.org/2000/svg" xmlns:xlink="http://www.w3.org/1999/xlink" xml:space="preserve" style="fill-rule:evenodd;clip-rule:evenodd;stroke-linecap:round;stroke-linejoin:round;stroke-miterlimit:10;"><clipPath id="_clip1"><rect id="Seite 7" x="0" y="0" width="72" height="72"/></clipPath><g clip-path="url(#_clip1)"><g id="planet7"><path d="M60.593,33.661c3.777,13.997 -4.507,28.406 -18.504,32.182c-13.998,3.777 -28.406,-4.507 -32.182,-18.505c-3.777,-13.996 4.507,-28.404 18.505,-32.181c13.996,-3.777 28.405,4.507 32.181,18.504Z" style="fill:none;stroke-width:3px;stroke:#12ac87;"/><path d="M58.334,27.993c2.157,0.175 4.053,0.511 5.631,1.003c2.733,0.855 4.503,2.181 4.984,3.964c1.619,5.999 -11.981,14.886 -30.378,19.85c-18.396,4.964 -34.621,4.125 -36.239,-1.874c-0.454,-1.682 0.289,-3.59 1.998,-5.575" style="fill:none;stroke-width:3px;stroke:#12ac87;"/><path d="M69.75,12c0,3.313 -2.686,6 -6,6c-3.314,0 -6,-2.687 -6,-6c0,-3.313 2.686,-6 6,-6c3.314,0 6,2.687 6,6Z" style="fill:none;stroke-width:3px;stroke:#12ac87;"/><path d="M52.5,8.25c0,1.243 -1.008,2.25 -2.25,2.25c-1.242,0 -2.25,-1.007 -2.25,-2.25c0,-1.243 1.008,-2.25 2.25,-2.25c1.242,0 2.25,1.007 2.25,2.25Z" style="fill:none;stroke-width:3px;stroke:#12ac87;"/><path d="M15.051,39.063c0.078,-1.088 0.243,-2.159 0.491,-3.206" style="fill:none;stroke-width:3px;stroke:#12ac87;"/><path d="M17.574,30.638c2.568,-4.598 6.917,-8.197 12.404,-9.677" style="fill:none;stroke-width:3px;stroke:#12ac87;"/><path d="M66.177,46.496c2.093,2.783 2.904,5.411 2.091,7.586c-2.464,6.596 -18.931,6.538 -36.78,-0.132c-17.848,-6.669 -30.319,-17.423 -27.855,-24.019c1.079,-2.887 4.838,-4.498 10.219,-4.84" style="fill:none;stroke-width:3px;stroke:#12ac87;"/></g></g></svg>