<?xml version="1.0" standalone="no"?><!DOCTYPE svg PUBLIC "-//W3C//DTD SVG 1.1//EN" "http://www.w3.org/Graphics/SVG/1.1/DTD/svg11.dtd"><svg width="100%" height="100%" viewBox="0 0 92 92" version="1.1" xmlns="http://www.w3.org/2000/svg" xmlns:xlink="http://www.w3.org/1999/xlink" xml:space="preserve" style="fill-rule:evenodd;clip-rule:evenodd;stroke-linecap:round;stroke-linejoin:round;stroke-miterlimit:1.41421;"><g><ellipse cx="45.65" cy="45.65" rx="45" ry="10.5" style="fill:none;stroke-width:0.75px;stroke:#adadad;"/><path d="M56.15,45.65c0,24.836 -4.705,45 -10.5,45c-5.796,0 -10.5,-20.164 -10.5,-45c0,-24.837 4.704,-45 10.5,-45c5.795,0 10.5,20.163 10.5,45Z" style="fill:none;stroke-width:0.75px;stroke:#adadad;"/><path d="M53.074,53.074c-17.562,17.562 -35.147,28.493 -39.244,24.395c-4.098,-4.097 6.833,-21.682 24.395,-39.244c17.562,-17.562 35.147,-28.493 39.244,-24.395c4.098,4.097 -6.833,21.682 -24.395,39.244Z" style="fill:none;stroke-width:0.75px;stroke:#adadad;"/><path d="M38.225,53.074c-17.562,-17.562 -28.493,-35.147 -24.395,-39.244c4.097,-4.098 21.682,6.833 39.244,24.395c17.562,17.562 28.493,35.147 24.395,39.244c-4.097,4.098 -21.682,-6.833 -39.244,-24.395Z" style="fill:none;stroke-width:0.75px;stroke:#adadad;"/><circle cx="45.65" cy="45.65" r="3" style="fill:#28a7e9;"/><circle cx="73.4" cy="62.9" r="3" style="fill:#12ac87;"/><circle cx="38.15" cy="12.969" r="3" style="fill:#12ac87;"/></g></svg>