<?xml version="1.0" standalone="no"?><!DOCTYPE svg PUBLIC "-//W3C//DTD SVG 1.1//EN" "http://www.w3.org/Graphics/SVG/1.1/DTD/svg11.dtd"><svg width="100%" height="100%" viewBox="0 0 72 72" version="1.1" xmlns="http://www.w3.org/2000/svg" xmlns:xlink="http://www.w3.org/1999/xlink" xml:space="preserve" style="fill-rule:evenodd;clip-rule:evenodd;stroke-linecap:round;stroke-linejoin:round;stroke-miterlimit:10;"><g id="planet7"><path d="M61.368,27.668c3.777,13.996 -4.508,28.405 -18.505,32.182c-13.997,3.777 -28.406,-4.508 -32.182,-18.505c-3.777,-13.997 4.508,-28.405 18.505,-32.182c13.996,-3.777 28.405,4.508 32.182,18.505Z" style="fill:none;stroke-width:3px;stroke:#12ac87;"/><path d="M57.024,42.756c0,3.314 -2.686,6 -6,6c-3.313,0 -6,-2.686 -6,-6c0,-3.313 2.687,-6 6,-6c3.314,0 6,2.687 6,6Z" style="fill:none;stroke-width:3px;stroke:#12ac87;"/><path d="M6.75,39.385c0,1.242 -1.008,2.25 -2.25,2.25c-1.242,0 -2.25,-1.008 -2.25,-2.25c0,-1.243 1.008,-2.25 2.25,-2.25c1.242,0 2.25,1.007 2.25,2.25Z" style="fill:none;stroke-width:3px;stroke:#12ac87;"/><path d="M45.544,44.931c-1.991,0.68 -4.062,1.309 -6.198,1.885c-18.396,4.964 -34.621,4.125 -36.24,-1.874c-0.453,-1.682 0.289,-3.59 1.998,-5.575" style="fill:none;stroke-width:3px;stroke-linecap:butt;stroke:#12ac87;"/><path d="M59.109,21.999c2.156,0.175 4.053,0.511 5.63,1.004c2.733,0.854 4.504,2.181 4.985,3.963c1.056,3.914 -4.364,9.055 -13.363,13.518" style="fill:none;stroke-width:3px;stroke-linecap:butt;stroke:#12ac87;"/><path d="M66.952,40.502c2.092,2.783 2.904,5.411 2.091,7.586c-2.465,6.597 -18.932,6.538 -36.78,-0.132c-17.849,-6.669 -30.32,-17.423 -27.855,-24.018c1.078,-2.887 4.837,-4.499 10.218,-4.841" style="fill:none;stroke-width:3px;stroke:#12ac87;"/></g></svg>