<?xml version="1.0" standalone="no"?><!DOCTYPE svg PUBLIC "-//W3C//DTD SVG 1.1//EN" "http://www.w3.org/Graphics/SVG/1.1/DTD/svg11.dtd"><svg width="100%" height="100%" viewBox="0 0 72 72" version="1.1" xmlns="http://www.w3.org/2000/svg" xmlns:xlink="http://www.w3.org/1999/xlink" xml:space="preserve" style="fill-rule:evenodd;clip-rule:evenodd;stroke-linecap:round;stroke-linejoin:round;stroke-miterlimit:10;"><clipPath id="_clip1"><rect id="Seite 6" x="0" y="0" width="72" height="72"/></clipPath><g clip-path="url(#_clip1)"><g id="planet6"><path d="M30,46.5c0,3.314 -2.687,6 -6,6c-3.313,0 -6,-2.686 -6,-6c0,-3.313 2.687,-6 6,-6c3.313,0 6,2.687 6,6Z" style="fill:none;stroke-width:3px;stroke:#12ac87;"/><path d="M55.823,6.346c4.557,-0.015 8.26,3.668 8.274,8.226c0.015,4.557 -3.668,8.259 -8.226,8.274c-4.555,0.014 -8.259,-3.669 -8.274,-8.226c-0.012,-4.557 3.671,-8.26 8.226,-8.274Z" style="fill:none;stroke-width:3px;stroke:#12ac87;"/><path d="M61.183,20.887c2.783,4.461 4.398,9.728 4.414,15.373c0.049,16.153 -13.009,29.287 -29.165,29.335c-16.154,0.046 -29.289,-13.011 -29.335,-29.163c-0.048,-16.154 13.009,-29.288 29.163,-29.337c4.544,-0.012 8.848,1.011 12.69,2.849" style="fill:none;stroke-width:3px;stroke:#12ac87;"/><path d="M18.557,43.99c-11.572,-6.172 -18.561,-13.869 -16.678,-19.468c1.138,-3.382 5.32,-5.419 11.31,-6.042" style="fill:none;stroke-width:3px;stroke:#12ac87;"/><path d="M69.691,42.315c0.786,1.834 0.962,3.582 0.43,5.163c-2.509,7.46 -19.819,8.368 -38.665,2.029c-0.649,-0.219 -1.293,-0.444 -1.929,-0.674" style="fill:none;stroke-width:3px;stroke:#12ac87;"/></g></g></svg>