<?xml version="1.0" standalone="no"?><!DOCTYPE svg PUBLIC "-//W3C//DTD SVG 1.1//EN" "http://www.w3.org/Graphics/SVG/1.1/DTD/svg11.dtd"><svg width="100%" height="100%" viewBox="0 0 375 46" version="1.1" xmlns="http://www.w3.org/2000/svg" xmlns:xlink="http://www.w3.org/1999/xlink" xml:space="preserve" style="fill-rule:evenodd;clip-rule:evenodd;stroke-linejoin:round;stroke-miterlimit:1.41421;"><g id="Logo"><path d="M31.422,9.054l-21.969,0l0,9.32l18.419,0l-8.321,8.321l-10.098,0l0,10.119l21.969,0l0,8.322l-31.422,0l0,-44.404l31.422,0l0,8.322Z" style="fill:#12ac87;"/><path d="M47.932,36.814l10.452,0l8.321,8.322l-28.293,0l0,-44.404l9.52,0l0,36.082Z" style="fill:#fff;"/><path d="M104.518,9.054l-21.969,0l0,9.32l18.45,0l-8.321,8.321l-10.129,0l0,10.119l21.969,0l0,8.322l-31.422,0l0,-44.404l31.422,0l0,8.322Z" style="fill:#fff;"/><path d="M121.361,45.136l-9.453,0l0,-44.404l9.453,0l0,19.772l15.711,-19.772l7.899,0l0,4.431l-13.891,16.406l18.84,23.567l-11.65,0l-13.448,-17.841l-3.461,4.194l0,13.647Z" style="fill:#fff;"/><path d="M186.835,0.732l-8.322,8.322l-4.494,0l0,36.082l-9.52,0l0,-36.082l-12.981,0l0,-8.322l35.317,0Z" style="fill:#fff;"/><path d="M229.008,45.136l-10.918,0l-8.721,-15.778l-6.924,0l0,15.778l-9.453,0l0,-44.404l20.771,0c4.571,0 8.21,1.332 10.917,3.995c2.708,2.662 4.061,6.102 4.061,10.318c0,3.64 -0.965,6.591 -2.896,8.854c-1.93,2.264 -4.227,3.706 -6.89,4.328l10.053,16.909ZM212.431,21.037c1.909,0 3.484,-0.544 4.727,-1.631c1.242,-1.088 1.864,-2.563 1.864,-4.427c0,-1.776 -0.622,-3.207 -1.864,-4.294c-1.243,-1.088 -2.818,-1.631 -4.727,-1.631l-9.986,0l0,11.983l9.986,0Z" style="fill:#fff;fill-rule:nonzero;"/><path d="M277.425,11.704c1.763,3.282 2.643,7.038 2.643,11.263c0,4.612 -1.049,8.665 -3.151,12.161l-9.295,-2.929c1.82,-2.534 2.727,-5.613 2.727,-9.232c0,-3.255 -0.734,-6.073 -2.21,-8.45l9.286,-2.813Z" style="fill:#12ac87;"/><path d="M274.932,37.899c-0.441,0.531 -0.916,1.046 -1.421,1.545c-4.372,4.327 -9.908,6.491 -16.61,6.491c-6.746,0 -12.304,-2.153 -16.676,-6.458c-4.372,-4.305 -6.557,-9.808 -6.557,-16.51c0,-6.701 2.185,-12.205 6.557,-16.51c4.372,-4.305 9.93,-6.457 16.676,-6.457c6.702,0 12.238,2.164 16.61,6.491c0.764,0.756 1.461,1.547 2.083,2.371l-9.651,2.924c-2.362,-2.265 -5.377,-3.398 -9.042,-3.398c-4.083,0 -7.356,1.376 -9.819,4.128c-2.463,2.751 -3.695,6.235 -3.695,10.451c0,4.217 1.243,7.7 3.728,10.452c2.486,2.752 5.748,4.128 9.786,4.128c3.28,0 6.041,-0.908 8.279,-2.721l9.752,3.073Z" style="fill:#fff;"/><path d="M326.469,45.136l-9.12,0l-21.17,-28.959l0,28.959l-9.453,0l0,-44.404l9.719,0l20.571,27.894l0,-27.894l9.453,0l0,44.404Z" style="fill:#12ac87;fill-rule:nonzero;"/><path d="M375,45.136l-9.12,0l-21.17,-28.959l0,28.959l-9.453,0l0,-44.404l9.719,0l20.571,27.894l0,-27.894l9.453,0l0,44.404Z" style="fill:#12ac87;fill-rule:nonzero;"/></g></svg>