<?xml version="1.0" encoding="UTF-8" standalone="no"?>
<svg
   xmlns:dc="http://purl.org/dc/elements/1.1/"
   xmlns:cc="http://creativecommons.org/ns#"
   xmlns:rdf="http://www.w3.org/1999/02/22-rdf-syntax-ns#"
   xmlns:svg="http://www.w3.org/2000/svg"
   xmlns="http://www.w3.org/2000/svg"
   xmlns:sodipodi="http://sodipodi.sourceforge.net/DTD/sodipodi-0.dtd"
   xmlns:inkscape="http://www.inkscape.org/namespaces/inkscape"
   width="100%"
   height="100%"
   viewBox="0 0 363.82415 47.026206"
   version="1.1"
   xml:space="preserve"
   style="fill-rule:evenodd;stroke-linejoin:round;stroke-miterlimit:1.41420996"
   id="svg2"
   inkscape:version="0.48.5 r10040"
   sodipodi:docname="-Title+1.svg"><metadata
     id="metadata29"><rdf:RDF><cc:Work
         rdf:about=""><dc:format>image/svg+xml</dc:format><dc:type
           rdf:resource="http://purl.org/dc/dcmitype/StillImage" /><dc:title></dc:title></cc:Work></rdf:RDF></metadata><defs
     id="defs27" /><sodipodi:namedview
     pagecolor="#000000"
     bordercolor="#666666"
     borderopacity="1"
     objecttolerance="10"
     gridtolerance="10"
     guidetolerance="10"
     inkscape:pageopacity="0"
     inkscape:pageshadow="2"
     inkscape:window-width="1920"
     inkscape:window-height="1100"
     id="namedview25"
     showgrid="false"
     fit-margin-top="0"
     fit-margin-left="0"
     fit-margin-right="0"
     fit-margin-bottom="0"
     inkscape:zoom="2.5946105"
     inkscape:cx="123.4791"
     inkscape:cy="21.888068"
     inkscape:window-x="0"
     inkscape:window-y="30"
     inkscape:window-maximized="1"
     inkscape:current-layer="Logo" /><g
     id="Logo"
     transform="translate(0.75,0.34120639)"><path
       d="m 31.422,9.054 -21.969,0 0,9.32 18.419,0 -8.321,8.321 -10.098,0 0,10.119 21.969,0 0,8.322 -31.422,0 0,-44.404 31.422,0 0,8.322 z"
       style="fill:#12ac87;stroke:#095844;stroke-width:1.5;stroke-linejoin:miter;stroke-miterlimit:2.50999999;stroke-opacity:1;stroke-dasharray:none"
       id="path5"
       inkscape:connector-curvature="0" /><path
       d="m 47.932,36.814 10.452,0 8.321,8.322 -28.293,0 0,-44.404 9.52,0 0,36.082 z"
       style="fill:#ffffff;stroke:#095844;stroke-width:1.5;stroke-linejoin:miter;stroke-miterlimit:2.50999999;stroke-opacity:1;stroke-dasharray:none"
       id="path7"
       inkscape:connector-curvature="0" /><path
       d="m 104.518,9.054 -21.969,0 0,9.32 18.45,0 -8.321,8.321 -10.129,0 0,10.119 21.969,0 0,8.322 -31.422,0 0,-44.404 31.422,0 0,8.322 z"
       style="fill:#ffffff;stroke:#095844;stroke-width:1.5;stroke-linejoin:miter;stroke-miterlimit:2.50999999;stroke-opacity:1;stroke-dasharray:none"
       id="path9"
       inkscape:connector-curvature="0" /><path
       d="m 121.361,45.136 -9.453,0 0,-44.404 9.453,0 0,19.772 15.711,-19.772 7.899,0 0,4.431 -13.891,16.406 18.84,23.567 -11.65,0 -13.448,-17.841 -3.461,4.194 0,13.647 z"
       style="fill:#ffffff;stroke:#095844;stroke-width:1.5;stroke-linejoin:miter;stroke-miterlimit:2.50999999;stroke-opacity:1;stroke-dasharray:none"
       id="path11"
       inkscape:connector-curvature="0" /><path
       d="m 186.835,0.732 -4.322,8.322 -8.494,0 0,36.082 -9.52,0 0,-36.082 -12.981,0 0,-8.322 z"
       style="fill:#ffffff;stroke:#095844;stroke-width:1.5;stroke-linejoin:miter;stroke-miterlimit:2.50999999;stroke-opacity:1;stroke-dasharray:none"
       id="path13"
       inkscape:connector-curvature="0"
       sodipodi:nodetypes="ccccccccc" /><path
       d="m 229.008,45.136 -10.918,0 -8.721,-15.778 -6.924,0 0,15.778 -9.453,0 0,-44.404 20.771,0 c 4.571,0 8.21,1.332 10.917,3.995 2.708,2.662 4.061,6.102 4.061,10.318 0,3.64 -0.965,6.591 -2.896,8.854 -1.93,2.264 -4.227,3.706 -6.89,4.328 l 10.053,16.909 z M 212.431,21.037 c 1.909,0 3.484,-0.544 4.727,-1.631 1.242,-1.088 1.864,-2.563 1.864,-4.427 0,-1.776 -0.622,-3.207 -1.864,-4.294 -1.243,-1.088 -2.818,-1.631 -4.727,-1.631 l -9.986,0 0,11.983 9.986,0 z"
       style="fill:#ffffff;fill-rule:nonzero;stroke:#095844;stroke-width:1.5;stroke-linejoin:miter;stroke-miterlimit:2.50999999;stroke-opacity:1;stroke-dasharray:none"
       id="path15"
       inkscape:connector-curvature="0" /><path
       d="m 276.49443,12.008635 c 1.74747,3.252792 2.61972,6.975366 2.61972,11.162766 0,4.570956 -1.03976,8.587887 -3.12324,12.052775 l -9.21311,-2.902934 c 1.80396,-2.511449 2.70297,-5.563048 2.70297,-9.149841 0,-3.226032 -0.72753,-6.018954 -2.19053,-8.3748 z"
       style="fill:#ffffff;fill-opacity:1;stroke:#095844;stroke-width:1.5;stroke-linejoin:miter;stroke-miterlimit:2.50999999;stroke-opacity:1;stroke-dasharray:none"
       id="path17"
       inkscape:connector-curvature="0"
       sodipodi:nodetypes="csccscc" /><path
       d="m 274.56846,37.970516 c -0.43712,0.526274 -0.90793,1.036691 -1.40849,1.53125 -4.33348,4.288492 -9.8207,6.433234 -16.46366,6.433234 -6.68656,0 -12.1956,-2.13384 -16.52908,-6.400528 -4.33348,-4.266688 -6.49923,-9.720714 -6.49923,-16.363071 0,-6.641365 2.16575,-12.096383 6.49923,-16.3630708 4.33348,-4.2666881 9.84252,-6.39953659 16.52908,-6.39953659 6.64296,0 12.13018,2.14474169 16.46366,6.43323399 0.75727,0.7492721 1.44813,1.5332327 2.06465,2.3498996 l -9.56597,2.8979778 c -2.34119,-2.2448425 -5.32963,-3.3677595 -8.96234,-3.3677595 -4.04703,0 -7.29119,1.3637545 -9.73249,4.0912635 -2.4413,2.726518 -3.66245,6.179512 -3.66245,10.357992 0,4.179472 1.23205,7.631475 3.69516,10.358984 2.4641,2.727509 5.69736,4.091263 9.69978,4.091263 3.2511,0 5.98778,-0.899919 8.20606,-2.696785 l 9.66609,3.045653 z"
       style="fill:#12ac87;fill-opacity:1;stroke:#095844;stroke-width:1.5;stroke-linecap:butt;stroke-linejoin:miter;stroke-miterlimit:2.50999999;stroke-opacity:1;stroke-dasharray:none"
       id="path19"
       inkscape:connector-curvature="0" /><path
       d="m 322.469,45.136 -9.12,0 -17.17,-26.959 0,26.959 -9.453,0 0,-44.404 9.719,0 16.571,25.894 0,-25.894 9.453,0 z"
       style="fill:#12ac87;fill-rule:nonzero;stroke:#095844;stroke-width:1.5;stroke-linejoin:miter;stroke-miterlimit:2.50999999;stroke-opacity:1;stroke-dasharray:none"
       id="path21"
       inkscape:connector-curvature="0"
       sodipodi:nodetypes="ccccccccccc" /><path
       d="m 362.32415,45.133458 -9.12,0 -17.17,-26.959 0,26.959 -9.453,0 0,-44.40399955 9.719,0 16.571,25.89399955 0,-25.89399955 9.453,0 z"
       style="fill:#12ac87;fill-rule:nonzero;stroke:#095844;stroke-width:1.5;stroke-linejoin:miter;stroke-miterlimit:2.50999999;stroke-opacity:1;stroke-dasharray:none"
       id="path21-0"
       inkscape:connector-curvature="0"
       sodipodi:nodetypes="ccccccccccc" /></g></svg>