<?xml version="1.0" standalone="no"?><!DOCTYPE svg PUBLIC "-//W3C//DTD SVG 1.1//EN" "http://www.w3.org/Graphics/SVG/1.1/DTD/svg11.dtd"><svg width="100%" height="100%" viewBox="0 0 1200 825" version="1.1" xmlns="http://www.w3.org/2000/svg" xmlns:xlink="http://www.w3.org/1999/xlink" xml:space="preserve" style="fill-rule:evenodd;clip-rule:evenodd;stroke-linejoin:round;stroke-miterlimit:1.41421;"><rect id="bg" x="0" y="0" width="1200" height="825" style="fill:#33495d;"/><g id="space stuff"><path id="central" d="M600,196.5c119.293,0 216,96.707 216,216c0,119.294 -96.707,216 -216,216c-119.293,0 -216,-96.706 -216,-216c0,-119.293 96.707,-216 216,-216Z" style="fill:#dfe5e7;fill-opacity:0.0313726;"/><path id="middle" d="M600.375,78c184.946,0 334.875,149.929 334.875,334.875c0,184.946 -149.929,334.875 -334.875,334.875c-184.946,0 -334.875,-149.929 -334.875,-334.875c0,-184.946 149.929,-334.875 334.875,-334.875Z" style="fill:#dfe5e7;fill-opacity:0.0196078;"/><path id="large" d="M600.75,7.5c223.675,0 405,181.325 405,405c0,223.675 -181.325,405 -405,405c-223.675,0 -405,-181.325 -405,-405c0,-223.675 181.325,-405 405,-405Z" style="fill:#dfe5e7;fill-opacity:0.0196078;"/><path id="stars" d="M476.25,618.75l-2.25,-3l-3.75,0l3,-2.25l0,-3.75l2.25,3l3.75,0l-3,2.25l0,3.75ZM476.25,568.5l-4.312,-3.562l-5.438,1.312l3.562,-4.312l-1.312,-5.438l4.312,3.563l5.438,-1.313l-3.562,4.313l1.312,5.437ZM789.75,568.5l-1.875,-1.875l-2.625,0.375l1.875,-1.875l-0.375,-2.625l1.875,1.875l2.625,-0.375l-1.875,1.875l0.375,2.625ZM805.5,557.25l3.75,0l-3,2.25l0,3.75l-2.25,-3l-3.75,0l3,-2.25l0,-3.75l2.25,3ZM313.5,558l-1.875,-1.875l-2.625,0.375l1.875,-1.875l-0.375,-2.625l1.875,1.875l2.625,-0.375l-1.875,1.875l0.375,2.625ZM640.5,549.75l-2.812,0.938l-0.938,2.812l-0.938,-2.812l-2.812,-0.938l2.812,-0.937l0.938,-2.813l0.938,2.813l2.812,0.937ZM519,511.5l-1.312,-2.062l-2.438,-0.188l2.063,-1.312l0.187,-2.438l1.313,2.063l2.437,0.187l-2.062,1.313l-0.188,2.437ZM405,498l-3,-1.5l-3,1.5l1.5,-3l-1.5,-3l3,1.5l3,-1.5l-1.5,3l1.5,3ZM330,450.75l-2.25,-3l-3.75,0l3,-2.25l0,-3.75l2.25,3l3.75,0l-3,2.25l0,3.75ZM426,447l-4.312,-3.562l-5.438,1.312l3.562,-4.312l-1.312,-5.438l4.312,3.563l5.438,-1.313l-3.562,4.313l1.312,5.437ZM354,381l-2.813,0.938l-0.937,2.812l-0.937,-2.812l-2.813,-0.938l2.813,-0.937l0.937,-2.813l0.937,2.813l2.813,0.937ZM488.25,306l-2.813,0.938l-0.937,2.812l-0.937,-2.812l-2.813,-0.938l2.813,-0.937l0.937,-2.813l0.937,2.813l2.813,0.937ZM654.75,294l3.75,0l-3,2.25l0,3.75l-2.25,-3l-3.75,0l3,-2.25l0,-3.75l2.25,3ZM418.5,293.25l-3.187,-2.062l-3.563,1.312l2.062,-3.187l-1.312,-3.563l3.188,2.063l3.562,-1.313l-2.063,3.188l1.313,3.562ZM349.5,276l-6.187,2.063l-2.063,6.187l-2.062,-6.187l-6.188,-2.063l6.188,-2.062l2.062,-6.188l2.063,6.188l6.187,2.062ZM765,275.25l-4.313,-3.562l-5.437,1.312l3.563,-4.313l-1.313,-5.437l4.313,3.562l5.437,-1.312l-3.563,4.312l1.313,5.438ZM565.5,274.5l-1.875,-1.875l-2.625,0.375l1.875,-1.875l-0.375,-2.625l1.875,1.875l2.625,-0.375l-1.875,1.875l0.375,2.625ZM461.25,242.25l-1.875,-1.875l-2.625,0.375l1.875,-1.875l-0.375,-2.625l1.875,1.875l2.625,-0.375l-1.875,1.875l0.375,2.625ZM743.25,195.75l3.75,0l-3,2.25l0,3.75l-2.25,-3l-3.75,0l3,-2.25l0,-3.75l2.25,3ZM471.75,89.25l3.75,0l-3,2.25l0,3.75l-2.25,-3l-3.75,0l3,-2.25l0,-3.75l2.25,3Z" style="fill:#dfe5e7;fill-opacity:0.2;"/></g></svg>