<?xml version="1.0" standalone="no"?><!DOCTYPE svg PUBLIC "-//W3C//DTD SVG 1.1//EN" "http://www.w3.org/Graphics/SVG/1.1/DTD/svg11.dtd"><svg width="100%" height="100%" viewBox="0 0 530 440" version="1.1" xmlns="http://www.w3.org/2000/svg" xmlns:xlink="http://www.w3.org/1999/xlink" xml:space="preserve" style="fill-rule:evenodd;clip-rule:evenodd;stroke-linecap:round;stroke-linejoin:round;stroke-miterlimit:1.41421;"><path d="M528.866,52.432c0,-4.452 -3.614,-8.066 -8.065,-8.066l-511.869,0c-4.452,0 -8.066,3.614 -8.066,8.066l0,366.369c0,4.451 3.614,8.065 8.066,8.065l511.869,0c4.451,0 8.065,-3.614 8.065,-8.065l0,-366.369Z" style="fill:#fff;stroke-width:1px;stroke:#dfe5e9;"/><rect x="18.866" y="84.116" width="492" height="322.5" style="fill:#f1f4f7;"/><g><circle cx="16.616" cy="60.866" r="2.25" style="fill:#fff;stroke-width:2px;stroke:#dfe5e9;"/><circle cx="24.116" cy="60.866" r="2.25" style="fill:#fff;stroke-width:2px;stroke:#dfe5e9;"/><circle cx="31.616" cy="60.866" r="2.25" style="fill:#fff;stroke-width:2px;stroke:#dfe5e9;"/></g><path d="M483.866,10.102c0,-5.098 -4.138,-9.236 -9.236,-9.236l-419.528,0c-5.098,0 -9.236,4.138 -9.236,9.236l0,419.528c0,5.098 4.138,9.236 9.236,9.236l419.528,0c5.098,0 9.236,-4.138 9.236,-9.236l0,-419.528Z" style="fill:#fff;stroke-width:1px;stroke:#dfe5e9;"/><g><circle cx="61.616" cy="15.866" r="2.25" style="fill:#fff;stroke-width:2px;stroke:#dfe5e9;"/><circle cx="69.116" cy="15.866" r="2.25" style="fill:#fff;stroke-width:2px;stroke:#dfe5e9;"/><circle cx="76.616" cy="15.866" r="2.25" style="fill:#fff;stroke-width:2px;stroke:#dfe5e9;"/></g></svg>