<?xml version="1.0" standalone="no"?><!DOCTYPE svg PUBLIC "-//W3C//DTD SVG 1.1//EN" "http://www.w3.org/Graphics/SVG/1.1/DTD/svg11.dtd"><svg width="100%" height="100%" viewBox="0 0 64 64" version="1.1" xmlns="http://www.w3.org/2000/svg" xmlns:xlink="http://www.w3.org/1999/xlink" xml:space="preserve" style="fill-rule:evenodd;clip-rule:evenodd;stroke-linecap:round;stroke-linejoin:round;stroke-miterlimit:1.41421;"><clipPath id="_clip1"><rect id="ArtBoard1" x="0" y="0" width="64" height="64"/></clipPath><g clip-path="url(#_clip1)"><g><clipPath id="_clip2"><path d="M64,64l-64,0l0,-64l64,0l0,64ZM39,51c2.208,0 4,1.792 4,4c0,2.208 -1.792,4 -4,4c-2.208,0 -4,-1.792 -4,-4c0,-2.208 1.792,-4 4,-4ZM8,16c2.208,0 4,1.792 4,4c0,2.208 -1.792,4 -4,4c-2.208,0 -4,-1.792 -4,-4c0,-2.208 1.792,-4 4,-4ZM50,11c2.208,0 4,1.792 4,4c0,2.208 -1.792,4 -4,4c-2.208,0 -4,-1.792 -4,-4c0,-2.208 1.792,-4 4,-4Z"/></clipPath><g clip-path="url(#_clip2)"><circle cx="32" cy="32" r="5" style="fill:#12ac87;"/><ellipse cx="32" cy="31.924" rx="12" ry="27.5" style="fill:none;stroke-width:1px;stroke:#12ac87;"/><path d="M55.816,18.174c3.311,5.736 -4.672,16.553 -17.816,24.142c-13.144,7.589 -26.504,9.094 -29.816,3.358c-3.311,-5.736 4.672,-16.554 17.816,-24.142c13.144,-7.589 26.504,-9.094 29.816,-3.358Z" style="fill:none;stroke-width:1px;stroke:#12ac87;"/><path d="M8.184,18.174c3.312,-5.736 16.672,-4.231 29.816,3.358c13.144,7.588 21.127,18.406 17.816,24.142c-3.312,5.736 -16.672,4.231 -29.816,-3.358c-13.144,-7.589 -21.127,-18.406 -17.816,-24.142" style="fill:none;stroke-width:1px;stroke:#12ac87;"/></g></g><circle cx="8" cy="20" r="3" style="fill:#12ac87;"/><circle cx="39" cy="55" r="3" style="fill:#12ac87;"/><circle cx="50" cy="15" r="3" style="fill:#12ac87;"/></g></svg>