<?xml version="1.0" standalone="no"?><!DOCTYPE svg PUBLIC "-//W3C//DTD SVG 1.1//EN" "http://www.w3.org/Graphics/SVG/1.1/DTD/svg11.dtd"><svg width="100%" height="100%" viewBox="0 0 39 39" version="1.1" xmlns="http://www.w3.org/2000/svg" xmlns:xlink="http://www.w3.org/1999/xlink" xml:space="preserve" style="fill-rule:evenodd;clip-rule:evenodd;stroke-linejoin:round;stroke-miterlimit:1.41421;"><g id="Logo"><path d="M32.015,32.404c-0.342,0.412 -0.711,0.811 -1.103,1.199c-3.391,3.357 -7.687,5.035 -12.886,5.035c-5.234,0 -9.547,-1.67 -12.938,-5.01c-3.392,-3.34 -5.088,-7.609 -5.088,-12.809c0,-5.199 1.696,-9.469 5.088,-12.809c3.391,-3.34 7.704,-5.01 12.938,-5.01c5.199,0 9.495,1.679 12.886,5.036c0.593,0.586 1.134,1.2 1.616,1.84l-7.487,2.268c-1.832,-1.757 -4.172,-2.636 -7.015,-2.636c-3.168,0 -5.707,1.067 -7.619,3.202c-1.911,2.135 -2.866,4.838 -2.866,8.109c0,3.271 0.964,5.974 2.892,8.109c1.929,2.135 4.459,3.203 7.593,3.203c2.545,0 4.686,-0.704 6.423,-2.111l7.566,2.384Z" style="fill:#ff6100;fill-opacity:0.498039;"/><path d="M34.265,29.404c-0.342,0.412 -0.711,0.811 -1.103,1.199c-3.391,3.357 -7.687,5.035 -12.886,5.035c-5.234,0 -9.547,-1.67 -12.938,-5.01c-3.392,-3.34 -5.088,-7.609 -5.088,-12.809c0,-5.199 1.696,-9.469 5.088,-12.809c3.391,-3.34 7.704,-5.01 12.938,-5.01c5.199,0 9.495,1.679 12.886,5.036c0.593,0.586 1.134,1.2 1.616,1.84l-7.487,2.268c-1.832,-1.757 -4.172,-2.636 -7.015,-2.636c-3.168,0 -5.707,1.067 -7.619,3.202c-1.911,2.135 -2.866,4.838 -2.866,8.109c0,3.271 0.964,5.974 2.892,8.109c1.929,2.135 4.459,3.203 7.593,3.203c2.545,0 4.686,-0.704 6.423,-2.111l7.566,2.384Z" style="fill:#5ba4ff;fill-opacity:0.494118;"/><path d="M34.699,10.581c1.368,2.546 2.051,5.46 2.051,8.738c0,3.578 -0.814,6.723 -2.445,9.435l-7.212,-2.273c1.412,-1.966 2.116,-4.355 2.116,-7.162c0,-2.525 -0.569,-4.712 -1.715,-6.556l7.205,-2.182Z" style="fill:#5ba4ff;fill-opacity:0.494118;"/><path d="M36.199,11.331c1.368,2.546 2.051,5.46 2.051,8.738c0,3.578 -0.814,6.723 -2.445,9.435l-7.212,-2.273c1.412,-1.966 2.116,-4.355 2.116,-7.162c0,-2.525 -0.569,-4.712 -1.715,-6.556l7.205,-2.182Z" style="fill:#ff6100;fill-opacity:0.498039;"/><g><path d="M35.449,10.581c1.368,2.546 2.051,5.46 2.051,8.738c0,3.578 -0.814,6.723 -2.445,9.435l-7.212,-2.273c1.412,-1.966 2.116,-4.355 2.116,-7.162c0,-2.525 -0.569,-4.712 -1.715,-6.556l7.205,-2.182Z" style="fill:#fff;"/><path d="M33.515,30.904c-0.342,0.412 -0.711,0.811 -1.103,1.199c-3.391,3.357 -7.687,5.035 -12.886,5.035c-5.234,0 -9.547,-1.67 -12.938,-5.01c-3.392,-3.34 -5.088,-7.609 -5.088,-12.809c0,-5.199 1.696,-9.469 5.088,-12.809c3.391,-3.34 7.704,-5.01 12.938,-5.01c5.199,0 9.495,1.679 12.886,5.036c0.593,0.586 1.134,1.2 1.616,1.84l-7.487,2.268c-1.832,-1.757 -4.172,-2.636 -7.015,-2.636c-3.168,0 -5.707,1.067 -7.619,3.202c-1.911,2.135 -2.866,4.838 -2.866,8.109c0,3.271 0.964,5.974 2.892,8.109c1.929,2.135 4.459,3.203 7.593,3.203c2.545,0 4.686,-0.704 6.423,-2.111l7.566,2.384Z" style="fill:#2e435f;fill-opacity:0.796079;"/></g></g></svg>